<svg width="20" height="20" viewBox="0 0 20 20" fill="none" xmlns="http://www.w3.org/2000/svg">
<path d="M5.67087 3.3516C6.12992 3.47679 6.58897 3.56026 7.04802 3.68545C7.50707 3.81065 7.96613 3.89411 8.42518 4.01931C8.55037 4.06104 8.5921 4.01931 8.63384 3.89411C8.80076 3.18467 8.96769 2.51696 9.13462 1.80752C9.17635 1.68232 9.21808 1.64059 9.34328 1.68232C9.76059 1.80752 10.1362 1.89098 10.5535 1.97444C10.6787 2.01618 10.6787 2.05791 10.637 2.14137C10.47 2.80908 10.3031 3.51852 10.1362 4.18623C10.1362 4.22797 10.1362 4.2697 10.0945 4.35316C10.4283 4.43662 10.8039 4.52009 11.1377 4.60355C11.1795 4.60355 11.2212 4.52009 11.2629 4.47836C11.3881 3.93584 11.5133 3.43506 11.6803 2.89255C11.722 2.72562 11.7637 2.55869 11.8055 2.39176C11.8055 2.3083 11.8472 2.26657 11.9307 2.3083C12.348 2.4335 12.7653 2.51696 13.2243 2.64215C13.2661 2.64215 13.2661 2.68389 13.3078 2.68389C13.1826 3.2264 13.0574 3.72718 12.9322 4.22797C12.8905 4.43663 12.8488 4.64528 12.7653 4.85394C12.7236 4.97914 12.7653 5.02087 12.8905 5.0626C13.3495 5.27126 13.8086 5.47992 14.2676 5.68858C14.685 5.93897 15.0605 6.27283 15.3527 6.69015C15.7283 7.31612 15.77 7.98383 15.6031 8.65154C15.4779 9.1106 15.3109 9.52791 14.9771 9.86177C14.7267 10.1122 14.3928 10.2791 14.059 10.4043C14.0172 10.4043 13.9755 10.446 13.892 10.446C14.059 10.5712 14.2259 10.6547 14.3928 10.7799C14.8936 11.1555 15.2275 11.6145 15.3944 12.1988C15.4779 12.6578 15.4361 13.1586 15.3109 13.6176C15.144 14.2019 14.9353 14.7027 14.5598 15.1617C14.1007 15.7042 13.5165 15.9964 12.8488 16.0798C11.9724 16.205 11.1377 16.1216 10.3031 15.9964C10.1779 15.9546 10.0945 15.9964 10.0527 16.1215C9.88579 16.7893 9.71886 17.4987 9.55194 18.1664C9.5102 18.3333 9.5102 18.3751 9.30154 18.2916C8.92596 18.2081 8.50864 18.0829 8.13305 17.9995C8.00786 17.9578 8.00786 17.916 8.04959 17.8326C8.21652 17.1231 8.38344 16.4137 8.5921 15.746C8.5921 15.6625 8.63383 15.6208 8.55037 15.579C8.21652 15.4956 7.88266 15.4121 7.50707 15.3286C7.42361 15.7042 7.29841 16.0798 7.21495 16.4554C7.13149 16.831 7.00629 17.2066 6.92283 17.5822C6.8811 17.6656 6.8811 17.7074 6.7559 17.6656C6.33858 17.5404 5.92126 17.457 5.50394 17.3735C5.37875 17.3318 5.37875 17.29 5.42048 17.2066C5.58741 16.4971 5.75434 15.7877 5.96299 15.12C5.96299 15.0783 6.00473 15.0365 6.00473 14.9531C5.04489 14.7027 4.08506 14.4523 3.0835 14.2019C3.16696 14.035 3.20869 13.9098 3.29216 13.7428C3.45908 13.3672 3.62601 12.9917 3.75121 12.6578C3.79294 12.5326 3.83467 12.5326 3.95987 12.5326C4.25199 12.6161 4.58584 12.6995 4.87797 12.7413C5.21182 12.8247 5.46221 12.6578 5.50394 12.3657C6.04646 10.2374 6.58897 8.10903 7.08976 5.93897C7.17322 5.60512 6.96456 5.22953 6.58897 5.10433C6.21339 4.97914 5.8378 4.89568 5.50394 4.81221C5.42048 4.81221 5.37875 4.77048 5.42048 4.68702C5.54568 4.22797 5.67087 3.72718 5.79607 3.26813C5.62914 3.39333 5.62914 3.39333 5.67087 3.3516ZM7.7992 13.6594C7.84093 13.6594 7.88266 13.7011 7.88266 13.7011C8.55037 13.868 9.25981 14.0767 9.96925 14.1184C10.47 14.1602 10.9291 14.1602 11.3881 13.9932C12.181 13.7428 12.5149 12.6995 12.0558 12.0318C11.8472 11.698 11.5133 11.4893 11.1795 11.2807C10.4283 10.8633 9.55194 10.6964 8.7173 10.5295C8.5921 10.4877 8.5921 10.5295 8.55037 10.6547C8.46691 11.072 8.34171 11.4476 8.25825 11.8649C8.09132 12.4491 7.96613 13.0334 7.7992 13.6594ZM11.3047 9.40272C11.3881 9.40272 11.5968 9.36099 11.7637 9.31925C12.5566 9.15233 12.9739 8.23423 12.5566 7.52478C12.348 7.1492 11.9724 6.89881 11.5968 6.73188C11.0126 6.48149 10.4283 6.35629 9.80233 6.18936C9.67713 6.14763 9.6354 6.18936 9.59367 6.31456C9.38501 7.19093 9.17635 8.02557 8.92596 8.90194C8.88423 8.9854 8.92596 9.02713 9.00942 9.06886C9.17635 9.1106 9.30155 9.15233 9.46847 9.19406C10.0945 9.27752 10.637 9.40272 11.3047 9.40272Z" fill="#F5B300"/>
</svg>
