<svg width="20" height="20" viewBox="0 0 20 20" fill="none" xmlns="http://www.w3.org/2000/svg">
<path d="M9.97408 18.3332C5.3475 18.3064 1.64088 14.5943 1.66688 9.98698C1.66688 5.35292 5.42627 1.64077 10.0261 1.66681C14.6534 1.69285 18.36 5.4318 18.3333 10.0391C18.2805 14.6471 14.5479 18.3592 9.97408 18.3332V18.3332ZM17.5181 10.013C17.5181 5.8269 14.1533 2.45701 9.97408 2.45701C5.8201 2.45701 2.45531 5.8269 2.45531 9.98698C2.45531 14.1731 5.8201 17.543 10.0001 17.543C14.1533 17.543 17.5181 14.1724 17.5181 10.013V10.013Z" fill="#C0C0C0"/>
<path d="M16.3879 10.013C16.3351 13.5675 13.4705 16.4373 9.94739 16.4105C6.37231 16.3585 3.53365 13.4618 3.58642 9.93417C3.63842 6.37976 6.50384 3.56271 10.0002 3.58876C13.5485 3.61554 16.3879 6.48467 16.3879 10.013V10.013ZM9.57956 12.3033V12.2244C9.76309 11.5138 9.92139 10.8293 10.1057 10.1187C10.1317 10.0659 10.1845 9.987 10.2632 9.96022C10.4468 9.88134 10.6311 9.80247 10.8153 9.74964C11.2359 9.64473 11.473 9.40737 11.525 8.98623C11.551 8.8017 11.6298 8.61792 11.6825 8.40734C11.2359 8.59113 10.8414 8.74962 10.4208 8.90736C10.7098 7.77489 10.9729 6.72203 11.2619 5.61634H8.86989C8.71236 5.61634 8.65959 5.66843 8.60683 5.82691L7.50257 9.93417C7.47274 10.0111 7.41728 10.0761 7.34503 10.1187C7.10797 10.2236 6.84567 10.3025 6.60937 10.4081C6.5566 10.4342 6.47784 10.4602 6.47784 10.487C6.37231 10.8293 6.26754 11.1976 6.13601 11.5927C6.50384 11.435 6.81967 11.3025 7.1875 11.1716C6.95044 12.0927 6.71414 12.9878 6.47784 13.8837H13.2602C13.3909 13.8837 13.4437 13.8569 13.4705 13.7252C13.5225 13.4618 13.6012 13.1991 13.6808 12.9618C13.7328 12.7773 13.7595 12.5935 13.8115 12.3829L9.57956 12.3033V12.3033Z" fill="#C0C0C0"/>
<path d="M9.57954 12.3033C10.9989 12.33 12.3922 12.3561 13.8115 12.4089C13.7595 12.6195 13.7068 12.8033 13.6808 12.9878C13.6012 13.2512 13.5225 13.4886 13.4705 13.752C13.4437 13.8837 13.3909 13.9097 13.2602 13.9097H6.47782C6.71488 12.9878 6.95118 12.1195 7.18748 11.1976C6.81965 11.3293 6.50382 11.461 6.13599 11.6187C6.24152 11.2244 6.34629 10.8821 6.47782 10.513C6.47782 10.4609 6.55658 10.4342 6.60935 10.4342C6.84641 10.3292 7.10871 10.2496 7.34501 10.144C7.42378 10.1187 7.50331 10.0398 7.50331 9.96018L8.60604 5.85367C8.63281 5.69593 8.68481 5.6431 8.86911 5.6431H11.2612C10.9721 6.722 10.709 7.80238 10.42 8.93411C10.8406 8.75033 11.2352 8.59184 11.6818 8.4341C11.629 8.64467 11.5502 8.82846 11.5242 9.01298C11.4715 9.43487 11.2352 9.67148 10.8146 9.77714C10.631 9.82923 10.446 9.9081 10.2624 9.98771C10.1972 10.0267 10.1431 10.0809 10.1049 10.1455C9.9206 10.856 9.73631 11.5406 9.57877 12.2512V12.304L9.57954 12.3033Z" fill="white"/>
</svg>
