<svg xmlns="http://www.w3.org/2000/svg" version="1.1" xmlns:xlink="http://www.w3.org/1999/xlink" xmlns:svgjs="http://svgjs.com/svgjs" width="39" height="36"><svg width="39" height="36" viewBox="0 0 39 36" fill="none" xmlns="http://www.w3.org/2000/svg">
<path d="M28.8242 14.4261C24.6471 15.0488 23.3758 13.4921 23.3758 13.4921C24.699 17.4876 30.1474 17.1762 31.756 16.9427C34.1948 16.5795 34.0131 18.2659 32.4565 18.6291C29.4209 19.3815 28.4091 20.9123 31.4446 21.1458C34.4802 21.3793 34.5839 22.7803 30.8998 23.7403C28.435 24.3629 28.435 25.4007 31.5484 25.9196C34.8693 26.4645 32.3786 27.3725 28.2275 27.7876C23.765 28.2287 23.6871 28.9811 25.4514 29.2405C30.1733 29.941 20.6776 31.394 20.6776 31.394C13.2055 32.9506 5.88906 28.1509 4.33237 20.7047C2.77569 13.2326 7.57546 5.91623 15.0216 4.35955C19.2506 3.47742 23.0385 4.25577 26.5411 6.87618C26.5411 6.87618 32.5343 12.4024 38.5535 8.95176C37.5157 9.21121 35.7774 9.0296 33.0272 7.10969C30.9257 5.65678 30.3549 4.93033 29.0577 3.99632C24.8806 0.623505 19.4582 -0.673732 14.1914 0.415947C4.56588 2.38775 -1.63492 11.8576 0.388773 21.509C2.41246 31.1345 11.8823 37.3353 21.5078 35.3376C30.329 33.4955 36.2703 25.4007 35.6736 16.6833C35.2585 13.518 33.8056 13.6996 28.8242 14.4261Z" fill="white"></path>
<path d="M15.125 17.3577C15.125 17.3577 15.9812 18.4474 17.8492 18.2917C17.8492 18.2917 19.9767 16.8128 18.9908 11.6758C18.9908 11.6758 17.4341 15.6972 15.125 17.3577Z" fill="white"></path>
<path d="M16.397 25.4522C16.397 25.4522 15.4371 24.4404 15.8522 22.6242C15.8522 22.6242 17.6164 20.7303 22.5719 22.4686C22.5719 22.4686 18.3688 23.4285 16.397 25.4522Z" fill="white"></path>
<path d="M12.2721 19.0961C12.2721 19.0961 9.47011 19.3296 7.39453 18.3438C7.39453 18.3438 8.40638 21.535 12.0905 21.5868C12.0646 21.5868 12.6354 20.4193 12.2721 19.0961Z" fill="white"></path>
</svg><style>@media (prefers-color-scheme: light) { :root { filter: contrast(1) brightness(0.6); } }
</style></svg>