<svg width="29" height="22" viewBox="0 0 29 22" fill="none" xmlns="http://www.w3.org/2000/svg">
<path d="M24.5496 1.8246C22.7009 0.981319 20.7193 0.358027 18.647 0.00360552C18.6286 2.20986e-05 18.6095 0.00233139 18.5924 0.0102141C18.5753 0.0180967 18.561 0.0311628 18.5516 0.0476026C18.2978 0.498573 18.0151 1.08642 17.8169 1.55084C15.6192 1.2187 13.3848 1.2187 11.187 1.55084C10.9663 1.03615 10.7174 0.534289 10.4415 0.0476026C10.4321 0.0309604 10.418 0.0175988 10.4009 0.00930086C10.3839 0.00100297 10.3647 -0.00183665 10.346 0.00116112C8.27501 0.355582 6.2934 0.978875 4.44349 1.82338C4.42758 1.83013 4.41409 1.84164 4.40483 1.85637C0.644604 7.44767 -0.386075 12.9009 0.120202 18.2856C0.121611 18.2988 0.125658 18.3116 0.132098 18.3231C0.138537 18.3347 0.147234 18.3448 0.15766 18.3528C2.3524 19.969 4.80035 21.2002 7.39899 21.9948C7.41711 22.0005 7.43648 22.0005 7.45459 21.9948C7.4727 21.9891 7.48869 21.9781 7.50049 21.9631C8.05968 21.2066 8.55521 20.4041 8.98186 19.564C8.98778 19.5525 8.9912 19.5399 8.99187 19.5269C8.99254 19.514 8.99046 19.5011 8.98576 19.489C8.98106 19.477 8.97386 19.4661 8.96464 19.4571C8.95542 19.4481 8.9444 19.4412 8.93232 19.4369C8.15177 19.1396 7.39547 18.7808 6.67039 18.3638C6.65736 18.3563 6.64638 18.3456 6.63844 18.3328C6.63049 18.3199 6.62583 18.3052 6.62487 18.2901C6.62392 18.275 6.62669 18.2598 6.63295 18.246C6.6392 18.2322 6.64875 18.2202 6.66072 18.2111C6.81297 18.0974 6.96521 17.9789 7.11021 17.8603C7.12326 17.8497 7.13898 17.8429 7.15562 17.8407C7.17226 17.8386 7.18917 17.8411 7.20446 17.8481C11.9494 20.004 17.0883 20.004 21.7777 17.8481C21.7931 17.8407 21.8102 17.8378 21.827 17.8398C21.8439 17.8417 21.8599 17.8484 21.8732 17.8591C22.0182 17.9789 22.1692 18.0974 22.3227 18.2111C22.3348 18.22 22.3445 18.2319 22.3509 18.2455C22.3574 18.2592 22.3604 18.2743 22.3597 18.2894C22.359 18.3046 22.3545 18.3193 22.3468 18.3323C22.3391 18.3453 22.3283 18.3561 22.3154 18.3638C21.5929 18.7843 20.8413 19.1399 20.0523 19.4357C20.0402 19.4401 20.0291 19.4471 20.0199 19.4562C20.0107 19.4653 20.0035 19.4763 19.9988 19.4885C19.9941 19.5006 19.992 19.5136 19.9927 19.5267C19.9934 19.5397 19.9968 19.5524 20.0028 19.564C20.4377 20.4036 20.9356 21.2029 21.4829 21.9618C21.4943 21.9774 21.5102 21.989 21.5283 21.9952C21.5465 22.0013 21.5661 22.0016 21.5844 21.996C24.1875 21.2037 26.6395 19.9719 28.8366 18.3528C28.8473 18.3453 28.8563 18.3355 28.863 18.3241C28.8697 18.3127 28.8739 18.3 28.8753 18.2868C29.4794 12.0613 27.8627 6.65206 24.587 1.85882C24.579 1.84324 24.5657 1.8311 24.5496 1.8246ZM9.69113 15.0066C8.26293 15.0066 7.08483 13.7002 7.08483 12.0979C7.08483 10.4945 8.23997 9.18922 9.69113 9.18922C11.1532 9.18922 12.3204 10.5055 12.2974 12.0979C12.2974 13.7014 11.1423 15.0066 9.69113 15.0066ZM19.3273 15.0066C17.8979 15.0066 16.721 13.7002 16.721 12.0979C16.721 10.4945 17.8749 9.18922 19.3273 9.18922C20.7894 9.18922 21.9566 10.5055 21.9336 12.0979C21.9336 13.7014 20.7906 15.0066 19.3273 15.0066Z" fill="white"/>
</svg>
