<svg width="25" height="24" viewBox="0 0 25 24" fill="none" xmlns="http://www.w3.org/2000/svg">
<path d="M12.5014 1.03134e-06C5.59435 -0.00275316 0 5.51113 0 12.3167C0 17.6984 3.49961 22.2731 8.37337 23.9532C9.02972 24.1157 8.92917 23.6557 8.92917 23.3417V21.2073C5.13909 21.6452 4.98548 19.1719 4.73131 18.7588C4.21741 17.894 3.00246 17.6736 3.36555 17.2605C4.22858 16.8226 5.10837 17.3707 6.12781 18.8552C6.86515 19.9321 8.30354 19.7503 9.03251 19.5713C9.19171 18.924 9.53245 18.3456 10.0017 17.8967C6.07474 17.2027 4.43805 14.8396 4.43805 12.0303C4.43805 10.667 4.89331 9.41382 5.78706 8.40303C5.21729 6.73675 5.84013 5.31008 5.92392 5.098C7.54664 4.95479 9.23361 6.24375 9.36487 6.34565C10.2866 6.10053 11.3395 5.97108 12.5182 5.97108C13.7024 5.97108 14.7581 6.10604 15.6882 6.35391C16.0038 6.11705 17.5679 5.00987 19.0761 5.14482C19.1571 5.3569 19.7659 6.75052 19.2297 8.39477C20.1346 9.40831 20.5955 10.6725 20.5955 12.0386C20.5955 14.8533 18.9476 17.2192 15.0095 17.9022C15.3468 18.2293 15.6146 18.6195 15.7973 19.0498C15.98 19.4801 16.074 19.942 16.0736 20.4085V23.507C16.096 23.7549 16.0736 24 16.4926 24C21.4389 22.3557 25 17.748 25 12.3195C25 5.51113 19.4029 1.03134e-06 12.5014 1.03134e-06Z" fill="white"/>
</svg>
