<svg width="19" height="20" viewBox="0 0 19 20" fill="none" xmlns="http://www.w3.org/2000/svg">
<path d="M5.48538 5.34879L11.1918 3.50806L10.8102 5.07661C11.3045 5.18952 11.8426 5.34274 12.437 5.54637C13.7552 6.00202 14.9523 6.53024 16.0265 7.13105L18.4 2.29435C17.2696 1.60282 15.9368 1.04839 14.3996 0.629032C12.8646 0.209677 11.3253 0 9.77982 0C8.08415 0 6.59497 0.256048 5.31435 0.766129C4.03165 1.27621 3.04303 2.01008 2.34641 2.96573C1.64978 3.92137 1.29939 5.03831 1.29939 6.3125C1.29939 7.62298 1.63936 8.67137 2.31721 9.45363C2.99506 10.2359 3.80014 10.8145 4.73453 11.1895C5.66683 11.5625 6.83065 11.9214 8.22598 12.2681C8.60141 12.3569 8.93303 12.4456 9.2438 12.5323L9.61297 11.0242L14.0472 14.4012L8.33861 16.2419L8.64521 14.9859C7.91313 14.8448 7.10179 14.6089 6.19034 14.25C4.68238 13.6573 3.43097 12.9435 2.43192 12.1048L0 16.8851C1.29939 17.8508 2.84072 18.6109 4.6219 19.1673C6.40308 19.7238 8.16967 20 9.92165 20C11.4672 20 12.8708 19.7722 14.1348 19.3165C15.3966 18.8609 16.3998 18.1653 17.1444 17.2258C17.889 16.2883 18.2623 15.127 18.2623 13.744C18.2623 12.3952 17.914 11.3085 17.2174 10.4778C16.5208 9.64919 15.7053 9.04435 14.7709 8.66129C13.8386 8.27822 12.6643 7.89516 11.2523 7.51411C10.8936 7.42137 10.5786 7.33468 10.2825 7.24798L9.91956 8.72581L5.48538 5.34879Z" fill="white"/>
</svg>
