<svg width="37" height="26" viewBox="0 0 37 26" fill="none" xmlns="http://www.w3.org/2000/svg">
<path d="M0.750732 5.12071C0.750732 2.54193 2.84125 0.451416 5.42002 0.451416H31.8793C34.4581 0.451416 36.5486 2.54193 36.5486 5.12071V20.685C36.5486 23.2638 34.4581 25.3543 31.8793 25.3543H5.42003C2.84125 25.3543 0.750732 23.2638 0.750732 20.685V5.12071Z" fill="white"/>
<path fill-rule="evenodd" clip-rule="evenodd" d="M10.6312 9.10841C10.3302 9.47355 9.84864 9.76154 9.36706 9.7204C9.30687 9.22669 9.54264 8.70213 9.81854 8.37814C10.1195 8.00272 10.6462 7.73529 11.0726 7.71472C11.1228 8.229 10.9272 8.73299 10.6312 9.10841ZM11.0677 9.81816C10.6434 9.79313 10.2563 9.94896 9.94362 10.0748C9.7424 10.1558 9.572 10.2244 9.44237 10.2244C9.29689 10.2244 9.11946 10.1522 8.92024 10.071C8.65921 9.96473 8.36077 9.84318 8.04781 9.84901C7.33046 9.8593 6.66328 10.2759 6.29708 10.9393C5.54462 12.2661 6.10144 14.2306 6.82882 15.3106C7.18499 15.8455 7.61138 16.4317 8.17322 16.4112C8.42039 16.4016 8.59819 16.3243 8.7822 16.2442C8.99405 16.1521 9.21412 16.0563 9.55774 16.0563C9.88946 16.0563 10.0999 16.1496 10.3019 16.2391C10.494 16.3242 10.6785 16.4059 10.9523 16.4009C11.5342 16.3906 11.9004 15.866 12.2566 15.3312C12.6409 14.7572 12.8098 14.1969 12.8355 14.1119L12.8385 14.1021C12.8379 14.1014 12.8331 14.0992 12.8247 14.0953C12.6962 14.035 11.7142 13.5741 11.7048 12.3381C11.6953 11.3007 12.4837 10.7751 12.6078 10.6923C12.6154 10.6873 12.6205 10.6839 12.6228 10.6821C12.1211 9.92101 11.3386 9.83873 11.0677 9.81816ZM15.096 16.3442V8.32669H18.0306C19.5455 8.32669 20.604 9.39639 20.604 10.9598C20.604 12.5232 19.5255 13.6032 17.9904 13.6032H16.31V16.3442H15.096ZM16.3099 9.37584H17.7094C18.7629 9.37584 19.3648 9.95183 19.3648 10.965C19.3648 11.9781 18.7629 12.5592 17.7044 12.5592H16.3099V9.37584ZM24.612 15.3825C24.2909 16.01 23.5836 16.4059 22.8211 16.4059C21.6924 16.4059 20.9049 15.7168 20.9049 14.678C20.9049 13.6494 21.6674 13.058 23.077 12.9706L24.5919 12.878V12.4357C24.5919 11.7826 24.1756 11.4278 23.4331 11.4278C22.8211 11.4278 22.3747 11.7518 22.2844 12.2455H21.1908C21.2259 11.2066 22.179 10.4506 23.4682 10.4506C24.8578 10.4506 25.7607 11.1963 25.7607 12.3535V16.3442H24.6371V15.3825H24.612ZM23.1472 15.4545C22.5001 15.4545 22.0887 15.1357 22.0887 14.6471C22.0887 14.1431 22.485 13.85 23.2425 13.8037L24.5919 13.7163V14.1688C24.5919 14.9197 23.9699 15.4545 23.1472 15.4545ZM29.4879 16.6579C29.0013 18.0619 28.4445 18.5248 27.2607 18.5248C27.1704 18.5248 26.8694 18.5145 26.7991 18.4939V17.5322C26.8744 17.5425 27.06 17.5528 27.1553 17.5528C27.6921 17.5528 27.993 17.3214 28.1787 16.7196L28.289 16.3648L26.2323 10.5278H27.5014L28.9311 15.2642H28.9562L30.3859 10.5278H31.6199L29.4879 16.6579Z" fill="black"/>
<path d="M5.42002 1.22963H31.8793V-0.326799H5.42002V1.22963ZM35.7704 5.12071V20.685H37.3268V5.12071H35.7704ZM31.8793 24.5761H5.42003V26.1325H31.8793V24.5761ZM1.52895 20.685V5.12071H-0.0274828V20.685H1.52895ZM5.42003 24.5761C3.27105 24.5761 1.52895 22.834 1.52895 20.685H-0.0274828C-0.0274828 23.6936 2.41146 26.1325 5.42003 26.1325V24.5761ZM35.7704 20.685C35.7704 22.834 34.0283 24.5761 31.8793 24.5761V26.1325C34.8879 26.1325 37.3268 23.6936 37.3268 20.685H35.7704ZM31.8793 1.22963C34.0283 1.22963 35.7704 2.97173 35.7704 5.12071H37.3268C37.3268 2.11213 34.8879 -0.326799 31.8793 -0.326799V1.22963ZM5.42002 -0.326799C2.41145 -0.326799 -0.0274828 2.11213 -0.0274828 5.12071H1.52895C1.52895 2.97172 3.27104 1.22963 5.42002 1.22963V-0.326799Z" fill="#F2F4F7"/>
</svg>
