<svg width="40" height="40" viewBox="0 0 40 40" fill="none" xmlns="http://www.w3.org/2000/svg">
<circle opacity="0.3" cx="20" cy="20" r="20" fill="#8E53F5"/>
<path d="M18.7373 8C18.5558 8.00064 18.382 8.07637 18.2537 8.21049C18.1254 8.34461 18.0531 8.52623 18.0524 8.71587V11.2681C16.8769 11.6546 15.8125 12.2965 14.9046 13.1675L12.7935 11.8886V11.8885C12.6354 11.7937 12.4476 11.7682 12.2716 11.818C12.0955 11.8678 11.9457 11.9886 11.8549 12.1538L10.093 15.3489C10.0018 15.5137 9.97695 15.7096 10.0238 15.8936C10.0706 16.0775 10.1852 16.2345 10.3427 16.3301L12.3624 17.5501C12.2217 18.1917 12.0891 18.8378 12.0885 19.4971V19.5029C12.0903 20.1636 12.2254 20.8076 12.3678 21.4499L10.3427 22.6699C10.1849 22.7655 10.0699 22.9227 10.0231 23.1071C9.97617 23.2914 10.0013 23.4876 10.093 23.6525L11.8549 26.8462C11.9457 27.0114 12.0955 27.1322 12.2715 27.1821C12.4476 27.2319 12.6354 27.2065 12.7935 27.1115L14.9046 25.8383C15.8127 26.7072 16.8777 27.347 18.0523 27.7321V30.2785C18.0516 30.4691 18.1234 30.6522 18.2519 30.7876C18.3803 30.9228 18.5548 30.9994 18.7373 31H22.2651C22.4474 30.9994 22.6221 30.9228 22.7504 30.7876C22.8789 30.6522 22.9507 30.4691 22.9499 30.2785V27.7319C24.1254 27.3454 25.1885 26.7035 26.0963 25.8325L28.2074 27.1114L28.2075 27.1115C28.3658 27.2068 28.5538 27.2325 28.7301 27.1828C28.9065 27.1329 29.0567 27.0119 29.1476 26.8462L30.9081 23.6525C30.9993 23.4871 31.0238 23.2904 30.9763 23.1061C30.9285 22.9217 30.8128 22.7648 30.6543 22.6699L28.6345 21.4499C28.776 20.8069 28.9132 20.1639 28.9139 19.5029V19.4971C28.912 18.8377 28.7763 18.1912 28.6345 17.5501L30.6543 16.3301C30.8123 16.2352 30.9279 16.0786 30.9756 15.8946C31.0232 15.7106 30.9988 15.5142 30.9081 15.3489L29.1476 12.1539C29.0567 11.9881 28.9065 11.8672 28.7301 11.8173C28.5538 11.7676 28.3658 11.7932 28.2075 11.8885L26.0965 13.1617C25.1898 12.2941 24.1228 11.6533 22.9501 11.268L22.9499 8.71592C22.9493 8.52628 22.8769 8.34467 22.7486 8.21054C22.6203 8.0764 22.4465 8.00069 22.2651 8.00005L18.7373 8ZM19.4275 9.4375H21.5748V11.6456C21.5751 11.8078 21.6277 11.9652 21.7243 12.0921C21.8208 12.219 21.9555 12.308 22.1066 12.3447C23.4544 12.6746 24.6765 13.4134 25.625 14.4673C25.7311 14.5865 25.8726 14.6647 26.0265 14.6889C26.1805 14.7131 26.3376 14.682 26.4725 14.6006L28.3003 13.4972L29.376 15.4442L27.5429 16.5477H27.5428C27.4091 16.6298 27.3058 16.7567 27.2498 16.9077C27.1936 17.0588 27.1881 17.2253 27.234 17.3802C27.4349 18.0688 27.5368 18.7828 27.5388 19.5027C27.5377 20.2212 27.4332 20.9378 27.234 21.6253C27.1885 21.7808 27.195 21.9478 27.2521 22.0989C27.309 22.25 27.4135 22.3766 27.5481 22.4578L29.3759 23.557L28.3002 25.504L26.4671 24.4005L26.4672 24.4007C26.3331 24.3185 26.1762 24.2863 26.0223 24.3092C25.8685 24.3322 25.7266 24.4089 25.6197 24.5269C24.6723 25.5807 23.4533 26.3185 22.1067 26.6495C21.9554 26.6864 21.8204 26.7756 21.7239 26.9028C21.6274 27.0301 21.5749 27.1878 21.5749 27.3501V29.5625H19.4276V27.3558C19.4276 27.1931 19.375 27.0354 19.2781 26.9082C19.1813 26.781 19.0461 26.6918 18.8944 26.6552C17.5466 26.3253 16.3205 25.5865 15.372 24.5326C15.2663 24.415 15.1257 24.338 14.973 24.3141C14.8201 24.2902 14.6642 24.3207 14.5301 24.4007L12.7023 25.504L11.6266 23.557L13.4529 22.4523C13.588 22.3712 13.6927 22.2448 13.7499 22.0937C13.8073 21.9424 13.8138 21.7754 13.7686 21.6198C13.5677 20.9312 13.4658 20.2171 13.4638 19.4972C13.4649 18.7788 13.5694 18.0621 13.7686 17.3746C13.8138 17.219 13.8073 17.052 13.7499 16.9007C13.6927 16.7496 13.588 16.6231 13.4529 16.5421L11.6266 15.4443L12.7023 13.4973L14.534 14.6007C14.6679 14.6817 14.824 14.713 14.977 14.6899C15.13 14.6667 15.271 14.5903 15.3774 14.473C16.3248 13.4193 17.5478 12.6813 18.8944 12.3504C19.0461 12.3139 19.1813 12.2247 19.2781 12.0974C19.375 11.9702 19.4276 11.8125 19.4276 11.65L19.4275 9.4375ZM22.8733 16.9692L22.8735 16.969C22.8497 16.9687 22.8259 16.9697 22.8023 16.9717C22.6275 16.99 22.4659 17.0775 22.3508 17.2161C22.2357 17.3549 22.1757 17.5345 22.1832 17.7179C22.1908 17.9015 22.2653 18.0751 22.3913 18.2029L23.6295 19.5029L22.3913 20.7973V20.7972C22.2584 20.9315 22.1827 21.1158 22.1813 21.309C22.1799 21.5021 22.253 21.6878 22.3841 21.824C22.5151 21.9602 22.693 22.0356 22.8778 22.033C23.0626 22.0306 23.2386 21.9504 23.3663 21.8108L25.092 20.0069C25.22 19.8721 25.2918 19.69 25.2918 19.5C25.2918 19.3101 25.22 19.128 25.092 18.9932L23.3663 17.1893V17.1894C23.2372 17.0492 23.0595 16.9698 22.8735 16.969L22.8733 16.9692ZM18.1075 16.9719L18.1076 16.9717C17.9294 16.9777 17.7605 17.0558 17.6363 17.1894L15.9106 18.9934V18.9932C15.7825 19.128 15.7106 19.3101 15.7106 19.5C15.7106 19.69 15.7825 19.8721 15.9106 20.0069L17.6363 21.8108C17.7609 21.9629 17.9405 22.0537 18.132 22.0614C18.3234 22.0691 18.5093 21.9931 18.6448 21.8514C18.7802 21.7099 18.8531 21.5156 18.8457 21.3154C18.8382 21.1153 18.7513 20.9274 18.6058 20.7972L17.3663 19.5028L18.6058 18.2029C18.7377 18.0675 18.8118 17.8822 18.8113 17.6889C18.8109 17.4956 18.7361 17.3106 18.6037 17.1757C18.4712 17.0407 18.2924 16.9673 18.1076 16.9719L18.1075 16.9719ZM20.9786 17.0351L20.9787 17.035C20.9572 17.0343 20.9357 17.0348 20.9142 17.0364C20.7681 17.0447 20.6285 17.1019 20.5154 17.1989C20.4024 17.2961 20.322 17.4285 20.2858 17.5769L19.3913 21.0569H19.3915C19.3336 21.2438 19.3515 21.4472 19.441 21.62C19.5305 21.7928 19.6837 21.9197 19.8649 21.9714C20.0462 22.023 20.2399 21.9949 20.4009 21.8936C20.5617 21.792 20.6759 21.6263 20.7169 21.4345L21.6099 17.9489V17.9488C21.6672 17.7375 21.6288 17.5105 21.5057 17.3324C21.3828 17.1543 21.1887 17.0447 20.9787 17.0349L20.9786 17.0351Z" fill="#BC6EFB"/>
</svg>
