<svg width="46" height="46" viewBox="0 0 46 46" fill="none" xmlns="http://www.w3.org/2000/svg">
<rect x="-1" y="1" width="44" height="44" rx="22" transform="matrix(-1 0 0 1 44 0)" stroke="url(#paint0_linear_162_4854)" stroke-width="2"/>
<path d="M26.8203 30.8918C26.6595 31.0525 26.4415 31.1427 26.2143 31.1427C25.987 31.1427 25.769 31.0525 25.6083 30.8918L18.1083 23.3918C17.9476 23.231 17.8573 23.0131 17.8573 22.7858C17.8573 22.5585 17.9476 22.3405 18.1083 22.1798L25.6083 14.6798C25.6873 14.5979 25.7819 14.5326 25.8865 14.4877C25.9911 14.4428 26.1035 14.4191 26.2173 14.4181C26.3312 14.4171 26.444 14.4388 26.5494 14.4819C26.6547 14.525 26.7504 14.5887 26.8309 14.6691C26.9114 14.7496 26.975 14.8453 27.0181 14.9507C27.0612 15.056 27.0829 15.1689 27.0819 15.2827C27.0809 15.3965 27.0573 15.509 27.0123 15.6135C26.9674 15.7181 26.9021 15.8127 26.8203 15.8918L19.9263 22.7858L26.8203 29.6798C26.9809 29.8405 27.0712 30.0585 27.0712 30.2858C27.0712 30.5131 26.9809 30.731 26.8203 30.8918Z" fill="url(#paint1_linear_162_4854)"/>
<defs>
<linearGradient id="paint0_linear_162_4854" x1="46" y1="0" x2="0" y2="46" gradientUnits="userSpaceOnUse">
<stop stop-color="#CD78FE"/>
<stop offset="1" stop-color="#9B5BF7"/>
</linearGradient>
<linearGradient id="paint1_linear_162_4854" x1="27.0846" y1="14.4181" x2="13.083" y2="21.0463" gradientUnits="userSpaceOnUse">
<stop stop-color="#8C52F4"/>
<stop offset="1" stop-color="#DC81FF"/>
</linearGradient>
</defs>
</svg>
