<svg width="46" height="46" viewBox="0 0 46 46" fill="none" xmlns="http://www.w3.org/2000/svg">
<rect x="0.999634" y="1" width="44" height="44" rx="22" stroke="url(#paint0_linear_162_4850)" stroke-width="2"/>
<path d="M19.1794 30.8918C19.3401 31.0525 19.5581 31.1427 19.7854 31.1427C20.0127 31.1427 20.2306 31.0525 20.3914 30.8918L27.8914 23.3918C28.0521 23.231 28.1423 23.0131 28.1423 22.7858C28.1423 22.5585 28.0521 22.3405 27.8914 22.1798L20.3914 14.6798C20.3123 14.5979 20.2177 14.5326 20.1131 14.4877C20.0086 14.4428 19.8961 14.4191 19.7823 14.4181C19.6685 14.4171 19.5556 14.4388 19.4503 14.4819C19.3449 14.525 19.2492 14.5887 19.1687 14.6691C19.0883 14.7496 19.0246 14.8453 18.9815 14.9507C18.9384 15.056 18.9167 15.1689 18.9177 15.2827C18.9187 15.3965 18.9424 15.509 18.9873 15.6135C19.0322 15.7181 19.0975 15.8127 19.1794 15.8918L26.0734 22.7858L19.1794 29.6798C19.0187 29.8405 18.9284 30.0585 18.9284 30.2858C18.9284 30.5131 19.0187 30.731 19.1794 30.8918Z" fill="url(#paint1_linear_162_4850)"/>
<defs>
<linearGradient id="paint0_linear_162_4850" x1="45.9996" y1="0" x2="-0.000366211" y2="46" gradientUnits="userSpaceOnUse">
<stop stop-color="#CD78FE"/>
<stop offset="1" stop-color="#9B5BF7"/>
</linearGradient>
<linearGradient id="paint1_linear_162_4850" x1="18.9151" y1="14.4181" x2="32.9167" y2="21.0463" gradientUnits="userSpaceOnUse">
<stop stop-color="#8C52F4"/>
<stop offset="1" stop-color="#DC81FF"/>
</linearGradient>
</defs>
</svg>
