<svg width="30" height="26" viewBox="0 0 30 26" fill="none" xmlns="http://www.w3.org/2000/svg">
<circle opacity="0.3" cx="12.9779" cy="13.0229" r="12.9779" fill="#8E53F5"/>
<path fill-rule="evenodd" clip-rule="evenodd" d="M25.8818 2.12822C23.3123 3.67341 20.7946 5.58154 18.0202 8.08633C16.0534 9.862 15.5555 10.3496 13.9651 12.0573C13.2855 12.787 12.6116 13.5107 12.4675 13.6654L12.2055 13.9468L9.24419 12.0992C7.61542 11.083 6.25763 10.2515 6.2268 10.2515C6.19598 10.2515 5.68231 10.691 5.08535 11.2281L4 12.2047L4.96842 13.384C7.4823 16.4455 11.1174 21.1796 11.9155 22.4316C12.1158 22.7457 12.3002 23.0015 12.3252 23C12.3502 22.9985 12.6641 22.5424 13.0227 21.9865C14.6745 19.4256 17.708 15.2529 19.9732 12.4258C23.3322 8.23359 26.2834 5.12537 29.022 2.89558C29.5446 2.47 29.9847 2.09357 29.9998 2.05908C30.015 2.02451 29.1411 1.99805 28.0578 2.00011C26.3524 2.0035 26.0607 2.02068 25.8818 2.12822Z" fill="url(#paint0_linear_285_4936)"/>
<defs>
<linearGradient id="paint0_linear_285_4936" x1="30.0074" y1="2" x2="7.31892" y2="26.1095" gradientUnits="userSpaceOnUse">
<stop stop-color="#8C52F4"/>
<stop offset="1" stop-color="#DC81FF"/>
</linearGradient>
</defs>
</svg>
