<svg width="40" height="40" viewBox="0 0 40 40" fill="none" xmlns="http://www.w3.org/2000/svg">
<circle opacity="0.3" cx="20" cy="20" r="20" fill="#8E53F5"/>
<path d="M28.9638 19.1099C27.8436 18.6928 26.368 18.4633 24.8098 18.4633C23.2516 18.4633 21.7761 18.693 20.6559 19.1099C18.9466 19.7461 18.5877 20.6031 18.5877 21.2101V23.858C18.5877 23.8689 18.5879 23.88 18.5883 23.8913H18.5877V26.5392C18.5877 26.5501 18.5879 26.5612 18.5883 26.5724H18.5877V29.2534C18.5877 29.8603 18.9466 30.7174 20.6559 31.3536C21.7761 31.7708 23.2516 32.0002 24.8098 32.0002C26.368 32.0002 27.8436 31.7706 28.9638 31.3536C30.6731 30.7175 31.0319 29.8604 31.0319 29.253L31.0321 29.2202V29.2196L31.0313 26.6153C31.0315 26.6007 31.0321 26.5863 31.0321 26.5721H31.0315C31.0317 26.561 31.0321 26.5495 31.0321 26.5386L31.0313 23.9343C31.0315 23.9197 31.0321 23.9053 31.0321 23.8911H31.0315C31.0317 23.88 31.0321 23.8686 31.0321 23.8577L31.0313 21.2534C31.0315 21.2388 31.0321 21.2244 31.0321 21.2102C31.0323 20.6032 30.6735 19.7461 28.9638 19.11L28.9638 19.1099ZM21.1347 20.3958C22.1058 20.0345 23.4109 19.8353 24.81 19.8353C26.2091 19.8353 27.5145 20.0345 28.4853 20.3958C29.4118 20.7406 29.6446 21.0878 29.6594 21.199V21.2208C29.6446 21.3321 29.4118 21.6792 28.4853 22.024C27.5143 22.3854 26.2091 22.5845 24.81 22.5845C23.4109 22.5845 22.1056 22.3854 21.1347 22.024C20.1759 21.6672 19.96 21.3076 19.96 21.2099C19.96 21.1123 20.1759 20.7527 21.1347 20.3958V20.3958ZM28.4853 30.0341C27.5145 30.3957 26.2091 30.5949 24.81 30.5949C23.4109 30.5949 22.1056 30.3957 21.1347 30.0343C20.1759 29.6775 19.96 29.3179 19.96 29.2202V28.3651C20.1627 28.4717 20.3933 28.5747 20.6559 28.6726C21.7761 29.0897 23.2517 29.3192 24.8099 29.3192C26.3681 29.3192 27.8436 29.0895 28.9638 28.6726C29.2264 28.5747 29.457 28.4719 29.6595 28.3653L29.6597 29.2204C29.6599 29.318 29.4438 29.6775 28.4854 30.0341L28.4853 30.0341ZM29.6602 26.5393H29.6594V26.5498C29.6446 26.6611 29.4118 27.0082 28.4853 27.353C27.5143 27.7144 26.2091 27.9136 24.81 27.9136C23.4109 27.9136 22.1056 27.7144 21.1347 27.353C20.1759 26.9962 19.9601 26.6366 19.9601 26.5389V25.6838C20.1627 25.7904 20.3934 25.8934 20.6559 25.9913C21.7761 26.4084 23.2517 26.6379 24.8099 26.6379C26.3681 26.6379 27.8436 26.4082 28.9638 25.9913C29.2264 25.8934 29.457 25.7906 29.6595 25.684L29.6603 26.5393L29.6602 26.5393ZM29.6602 23.8582H29.6594V23.8687C29.6446 23.9799 29.4118 24.3271 28.4853 24.6719C27.5143 25.0332 26.2091 25.2324 24.81 25.2324C23.4109 25.2324 22.1056 25.0333 21.1347 24.6719C20.1759 24.315 19.9601 23.9554 19.9601 23.8578V23.0028C20.1627 23.1094 20.3934 23.2125 20.6559 23.3103C21.7761 23.7275 23.2517 23.9569 24.8099 23.9569C26.3681 23.9569 27.8436 23.7273 28.9638 23.3103C29.2264 23.2125 29.457 23.1096 29.6595 23.003L29.6603 23.8582L29.6602 23.8582ZM17.2154 26.6052V26.572V26.556V26.5385V25.4917C16.8919 25.5142 16.5596 25.5263 16.2218 25.5263C14.8226 25.5263 13.5173 25.3271 12.5465 24.9658C11.5877 24.6089 11.3718 24.2493 11.3718 24.1517V23.2965C11.5744 23.4031 11.8051 23.5062 12.0677 23.604C13.1879 24.0211 14.6634 24.2508 16.2216 24.2508C16.5575 24.2508 16.8897 24.2393 17.2152 24.2185V23.891V23.8751V23.8576V22.8107C16.8918 22.8333 16.5594 22.8453 16.2216 22.8453C14.8225 22.8453 13.5172 22.6462 12.5463 22.2848C11.5875 21.9279 11.3716 21.5683 11.3716 21.4707V20.6155C11.5743 20.7221 11.8049 20.8252 12.0675 20.923C13.1877 21.3402 14.6633 21.5699 16.2215 21.5699C16.5573 21.5699 16.8895 21.5584 17.2151 21.5376L17.2155 21.2101C17.2155 20.9047 17.2649 20.5072 17.4463 20.0784C17.0507 20.113 16.6407 20.1313 16.222 20.1313C14.8229 20.1313 13.5176 19.9322 12.5467 19.5708C11.5879 19.2139 11.3721 18.8543 11.3721 18.7567V17.9015C11.5747 18.0081 11.8054 18.1112 12.0679 18.209C13.1881 18.6262 14.6637 18.8558 16.2219 18.8558C17.0475 18.8558 17.8487 18.7909 18.587 18.6682C18.9915 18.3609 19.5108 18.0719 20.1771 17.8239C20.8434 17.5758 21.6141 17.3871 22.4436 17.263L22.4434 16.1545C22.4439 16.1391 22.4441 16.1241 22.4441 16.1089H22.4436C22.4437 16.0979 22.4441 16.0864 22.4441 16.0755L22.4434 13.4733C22.4439 13.458 22.4441 13.443 22.4441 13.4278H22.4436C22.4437 13.4167 22.4441 13.4052 22.4441 13.3944L22.4434 10.7922C22.4439 10.7768 22.4441 10.7618 22.4441 10.7467C22.4441 10.1397 22.0853 9.28262 20.376 8.64644C19.2558 8.22947 17.7805 8 16.2221 8C14.6639 8 13.1883 8.22949 12.0681 8.64644C10.3588 9.28257 10 10.1397 10 10.7467V13.3946C10 13.4054 10.0002 13.4165 10.0006 13.4278H10V16.0757C10 16.0866 10.0002 16.0977 10.0006 16.109H10V18.7901C10 18.801 10.0002 18.8121 10.0006 18.8234H10V21.4712C10 21.4821 10.0002 21.4932 10.0006 21.5045H10V24.1524C10 24.7593 10.3588 25.6164 12.0681 26.2526C13.1883 26.6698 14.6639 26.8994 16.2221 26.8994C16.5579 26.8994 16.8901 26.888 17.2157 26.8672V26.6052L17.2154 26.6052ZM12.5467 9.93298C13.5177 9.57163 14.8229 9.37247 16.222 9.37247C17.6211 9.37247 18.9264 9.57162 19.8973 9.93298C20.823 10.2776 21.056 10.6244 21.0709 10.736V10.7584C21.056 10.8698 20.8228 11.2168 19.8973 11.5614C18.9262 11.9227 17.621 12.1219 16.222 12.1219C14.8228 12.1219 13.5175 11.9227 12.5467 11.5614C11.5879 11.2045 11.372 10.8449 11.372 10.7473C11.3722 10.6494 11.5877 10.2898 12.5467 9.93299V9.93298ZM11.3718 12.5398C11.5744 12.6464 11.8051 12.7494 12.0677 12.8473C13.1879 13.2644 14.6634 13.4941 16.2216 13.4941C17.7798 13.4941 19.2553 13.2644 20.3756 12.8473C20.6381 12.7494 20.8688 12.6466 21.0712 12.54L21.0714 13.3947V13.3949H21.0707V13.4058C21.0557 13.5173 20.8225 13.8642 19.897 14.2088C18.9259 14.5702 17.6207 14.7693 16.2217 14.7693C14.8225 14.7693 13.5172 14.5702 12.5464 14.2088C11.5876 13.852 11.3717 13.4923 11.3717 13.3947L11.3718 12.5398ZM11.3718 15.2207C11.5744 15.3273 11.8051 15.4304 12.0677 15.5282C13.1879 15.9454 14.6634 16.175 16.2216 16.175C17.7798 16.175 19.2553 15.9454 20.3756 15.5282C20.6381 15.4304 20.8688 15.3275 21.0712 15.2209L21.0714 16.0757V16.0759H21.0707V16.0868C21.0557 16.1982 20.8225 16.5452 19.897 16.8898C18.9259 17.2511 17.6207 17.4503 16.2217 17.4503C14.8225 17.4503 13.5172 17.2511 12.5464 16.8898C11.5876 16.5329 11.3717 16.1733 11.3717 16.0757L11.3718 15.2207Z" fill="#BC6EFB"/>
</svg>
