<svg width="37" height="26" viewBox="0 0 37 26" fill="none" xmlns="http://www.w3.org/2000/svg">
<path d="M0.750977 3.56428C0.750977 1.84509 2.14465 0.451416 3.86384 0.451416H33.436C35.1552 0.451416 36.5489 1.84509 36.5489 3.56428V22.2414C36.5489 23.9606 35.1552 25.3543 33.436 25.3543H3.86384C2.14466 25.3543 0.750977 23.9606 0.750977 22.2414V3.56428Z" fill="white"/>
<path d="M3.86384 1.22963H33.436V-0.326799H3.86384V1.22963ZM35.7707 3.56428V22.2414H37.3271V3.56428H35.7707ZM33.436 24.5761H3.86384V26.1325H33.436V24.5761ZM1.52919 22.2414V3.56428H-0.0272387V22.2414H1.52919ZM3.86384 24.5761C2.57445 24.5761 1.52919 23.5308 1.52919 22.2414H-0.0272387C-0.0272387 24.3904 1.71486 26.1325 3.86384 26.1325V24.5761ZM35.7707 22.2414C35.7707 23.5308 34.7254 24.5761 33.436 24.5761V26.1325C35.585 26.1325 37.3271 24.3904 37.3271 22.2414H35.7707ZM33.436 1.22963C34.7254 1.22963 35.7707 2.27489 35.7707 3.56428H37.3271C37.3271 1.41529 35.585 -0.326799 33.436 -0.326799V1.22963ZM3.86384 -0.326799C1.71486 -0.326799 -0.0272387 1.41529 -0.0272387 3.56428H1.52919C1.52919 2.27489 2.57445 1.22963 3.86384 1.22963V-0.326799Z" fill="#F2F4F7"/>
</svg>
