<svg width="132" height="120" viewBox="0 0 132 120" fill="none" xmlns="http://www.w3.org/2000/svg" xmlns:xlink="http://www.w3.org/1999/xlink">
<circle opacity="0.1" cx="60" cy="60" r="60" fill="#030917"/>
<g filter="url(#filter0_d_182_4394)">
<path d="M23.3192 55.2146C20.4533 52.2208 20.2158 47.5784 22.7612 44.3077L31.3877 33.223C32.9704 31.1894 35.4031 30 37.98 30H82.3886C84.9857 30 87.4351 31.208 89.016 33.2685L97.5046 44.3321C100.009 47.5963 99.7638 52.1981 96.9266 55.1777L66.2356 87.4072C62.9495 90.858 57.4471 90.8652 54.152 87.4231L23.3192 55.2146Z" fill="url(#paint0_linear_182_4394)"/>
</g>
<mask id="mask0_182_4394" style="mask-type:alpha" maskUnits="userSpaceOnUse" x="21" y="30" width="79" height="60">
<path d="M23.3192 55.2146C20.4533 52.2208 20.2158 47.5784 22.7612 44.3077L31.3877 33.223C32.9704 31.1894 35.4031 30 37.98 30H82.3886C84.9857 30 87.4351 31.208 89.016 33.2685L97.5046 44.3321C100.009 47.5963 99.7638 52.1981 96.9266 55.1777L66.2356 87.4072C62.9495 90.858 57.4471 90.8652 54.152 87.4231L23.3192 55.2146Z" fill="white"/>
</mask>
<g mask="url(#mask0_182_4394)">
<path d="M18.3301 50.0022L33.8966 30H86.5089L101.856 50.0022L60.2027 93.7431L18.3301 50.0022Z" fill="url(#paint1_linear_182_4394)"/>
<path d="M18.3281 50L37.6049 56.3655L60.2008 93.741L18.3281 50Z" fill="black" fill-opacity="0.1"/>
<path d="M101.749 50L82.1508 56.3655L60.2012 93.741L101.749 50Z" fill="black" fill-opacity="0.1"/>
<g style="mix-blend-mode:overlay">
<path d="M59.8793 34.3731L33.7227 29.9902L37.6044 56.3667H59.7694H59.9892H82.1499L86.0316 29.9902L59.8793 34.3731Z" fill="white"/>
</g>
<g style="mix-blend-mode:soft-light">
<path d="M33.7227 29.9902L60.2002 38.7824L86.5064 29.999L33.7227 29.9902Z" fill="white"/>
</g>
<g style="mix-blend-mode:overlay">
<path d="M59.8784 34.3711L37.6035 56.3647H82.149L59.8784 34.3711Z" fill="white"/>
</g>
<g style="mix-blend-mode:soft-light">
<path d="M60.1994 38.7832L37.6035 56.3675H82.149L60.1994 38.7832Z" fill="white"/>
</g>
<g style="mix-blend-mode:soft-light">
<path d="M37.6049 56.3667L18.3281 50.0012L33.7232 29.9902H37.6049V56.3667Z" fill="white"/>
</g>
<g style="mix-blend-mode:soft-light">
<path d="M82.1504 56.3667L101.862 50.0012L86.4673 29.9902H82.5856L82.1504 56.3667Z" fill="white"/>
</g>
<g style="mix-blend-mode:soft-light" opacity="0.5">
<path d="M37.6035 56.3652L60.0895 93.6837L82.149 56.3652H37.6035Z" fill="white"/>
</g>
<g style="mix-blend-mode:soft-light" opacity="0.3" filter="url(#filter1_i_182_4394)">
<path d="M37.6035 56.3652L60.0895 93.6837L82.149 56.3652H37.6035Z" fill="black"/>
</g>
<g style="mix-blend-mode:soft-light">
<rect x="18.3301" y="103.084" width="83.5343" height="83.5343" transform="rotate(-90 18.3301 103.084)" fill="url(#pattern0)" fill-opacity="0.6"/>
</g>
</g>
<defs>
<filter id="filter0_d_182_4394" x="13" y="20" width="118.231" height="100" filterUnits="userSpaceOnUse" color-interpolation-filters="sRGB">
<feFlood flood-opacity="0" result="BackgroundImageFix"/>
<feColorMatrix in="SourceAlpha" type="matrix" values="0 0 0 0 0 0 0 0 0 0 0 0 0 0 0 0 0 0 127 0" result="hardAlpha"/>
<feOffset dx="12" dy="10"/>
<feGaussianBlur stdDeviation="10"/>
<feComposite in2="hardAlpha" operator="out"/>
<feColorMatrix type="matrix" values="0 0 0 0 0 0 0 0 0 0 0 0 0 0 0 0 0 0 0.2 0"/>
<feBlend mode="normal" in2="BackgroundImageFix" result="effect1_dropShadow_182_4394"/>
<feBlend mode="normal" in="SourceGraphic" in2="effect1_dropShadow_182_4394" result="shape"/>
</filter>
<filter id="filter1_i_182_4394" x="37.6035" y="52.3652" width="44.5455" height="41.3184" filterUnits="userSpaceOnUse" color-interpolation-filters="sRGB">
<feFlood flood-opacity="0" result="BackgroundImageFix"/>
<feBlend mode="normal" in="SourceGraphic" in2="BackgroundImageFix" result="shape"/>
<feColorMatrix in="SourceAlpha" type="matrix" values="0 0 0 0 0 0 0 0 0 0 0 0 0 0 0 0 0 0 127 0" result="hardAlpha"/>
<feOffset dy="-4"/>
<feGaussianBlur stdDeviation="15"/>
<feComposite in2="hardAlpha" operator="arithmetic" k2="-1" k3="1"/>
<feColorMatrix type="matrix" values="0 0 0 0 1 0 0 0 0 1 0 0 0 0 1 0 0 0 1 0"/>
<feBlend mode="normal" in2="shape" result="effect1_innerShadow_182_4394"/>
</filter>
<pattern id="pattern0" patternContentUnits="objectBoundingBox" width="10.7261" height="6.43568">
<use xlink:href="#image0_182_4394" transform="scale(0.00837979)"/>
</pattern>
<linearGradient id="paint0_linear_182_4394" x1="60.1153" y1="30" x2="60.1153" y2="90" gradientUnits="userSpaceOnUse">
<stop stop-color="#FFEF64"/>
<stop offset="0.5" stop-color="#FFA215"/>
<stop offset="1" stop-color="#FFE456"/>
</linearGradient>
<linearGradient id="paint1_linear_182_4394" x1="60.0928" y1="30" x2="60.0928" y2="93.7431" gradientUnits="userSpaceOnUse">
<stop stop-color="#FFEF64"/>
<stop offset="0.5" stop-color="#FFA215"/>
<stop offset="1" stop-color="#FFE456"/>
</linearGradient>
</defs>
</svg>
