<svg width="100" height="46" viewBox="0 0 100 46" fill="none" xmlns="http://www.w3.org/2000/svg">
<g clip-path="url(#clip0_182_4682)">
<path d="M38.7095 13.752H42.2899V22.1062C43.3018 20.6532 44.7547 19.382 47.1675 19.382C50.696 19.382 52.7197 21.7429 52.7197 25.3492V35.312H49.1393V26.4649C49.1393 24.052 47.9199 22.651 45.7924 22.651C43.7169 22.651 42.264 24.1039 42.264 26.5168V35.312H38.6836V13.752H38.7095Z" fill="white"/>
<path d="M56.1699 27.6067V27.5548C56.1699 23.0924 59.7243 19.4082 64.4982 19.4082C69.2979 19.4082 72.8005 23.0405 72.8005 27.503V27.5548C72.8005 31.9914 69.2461 35.6755 64.4463 35.6755C59.6984 35.6755 56.1699 32.0433 56.1699 27.6067ZM69.2461 27.6067V27.5548C69.2461 24.8047 67.2743 22.5216 64.4463 22.5216C61.5924 22.5216 59.7503 24.7788 59.7503 27.477V27.5289C59.7503 30.2531 61.7221 32.5362 64.4982 32.5362C67.404 32.5362 69.2461 30.305 69.2461 27.6067Z" fill="white"/>
<path d="M75.1875 33.2889L76.7961 30.8761C78.5084 32.1474 80.3246 32.796 81.9072 32.796C83.4379 32.796 84.32 32.1474 84.32 31.1096V31.0577C84.32 29.8383 82.6596 29.4232 80.8435 28.8783C78.5344 28.2297 75.9658 27.2697 75.9658 24.2861V24.2342C75.9658 21.2765 78.4306 19.4863 81.518 19.4863C83.4639 19.4863 85.5913 20.1609 87.2518 21.2506L85.8248 23.7932C84.32 22.8851 82.7115 22.3143 81.4142 22.3143C80.0132 22.3143 79.2349 22.9629 79.2349 23.845V23.8969C79.2349 25.0385 80.9213 25.5314 82.7634 26.1022C85.0465 26.8027 87.615 27.8405 87.615 30.6426V30.6944C87.615 33.9635 85.0724 35.598 81.8294 35.598C79.5981 35.6239 77.1334 34.8197 75.1875 33.2889Z" fill="white"/>
<path d="M91.714 31.0043V22.8058H89.7422V19.7184H91.714V15.4375H95.2944V19.7184H99.4974V22.7799H95.2944V30.4335C95.2944 31.8346 95.9949 32.3794 97.2143 32.3794C98.0186 32.3794 98.7191 32.1978 99.4196 31.8346V34.7663C98.5375 35.2593 97.5515 35.5706 96.2024 35.5706C93.5561 35.5965 91.714 34.429 91.714 31.0043Z" fill="white"/>
<path d="M28.8242 14.4261C24.6471 15.0488 23.3758 13.4921 23.3758 13.4921C24.699 17.4876 30.1474 17.1762 31.756 16.9427C34.1948 16.5795 34.0131 18.2659 32.4565 18.6291C29.4209 19.3815 28.4091 20.9123 31.4446 21.1458C34.4802 21.3793 34.5839 22.7803 30.8998 23.7403C28.435 24.3629 28.435 25.4007 31.5484 25.9196C34.8693 26.4645 32.3786 27.3725 28.2275 27.7876C23.765 28.2287 23.6871 28.9811 25.4514 29.2405C30.1733 29.941 20.6776 31.394 20.6776 31.394C13.2055 32.9506 5.88906 28.1509 4.33237 20.7047C2.77569 13.2326 7.57546 5.91623 15.0216 4.35955C19.2506 3.47742 23.0385 4.25577 26.5411 6.87618C26.5411 6.87618 32.5343 12.4024 38.5535 8.95176C37.5157 9.21121 35.7774 9.0296 33.0272 7.10969C30.9257 5.65678 30.3549 4.93033 29.0577 3.99632C24.8806 0.623505 19.4582 -0.673732 14.1914 0.415947C4.56588 2.38775 -1.63492 11.8576 0.388773 21.509C2.41246 31.1345 11.8823 37.3353 21.5078 35.3376C30.329 33.4955 36.2703 25.4007 35.6736 16.6833C35.2585 13.518 33.8056 13.6996 28.8242 14.4261Z" fill="white"/>
<path d="M15.125 17.3577C15.125 17.3577 15.9812 18.4474 17.8492 18.2917C17.8492 18.2917 19.9767 16.8128 18.9908 11.6758C18.9908 11.6758 17.4341 15.6972 15.125 17.3577Z" fill="white"/>
<path d="M16.397 25.4522C16.397 25.4522 15.4371 24.4404 15.8522 22.6242C15.8522 22.6242 17.6164 20.7303 22.5719 22.4686C22.5719 22.4686 18.3688 23.4285 16.397 25.4522Z" fill="white"/>
<path d="M12.2721 19.0961C12.2721 19.0961 9.47011 19.3296 7.39453 18.3438C7.39453 18.3438 8.40638 21.535 12.0905 21.5868C12.0646 21.5868 12.6354 20.4193 12.2721 19.0961Z" fill="white"/>
<path d="M1.19336 42.4729C1.19336 40.5012 2.64626 38.8926 4.72184 38.8926C5.99314 38.8926 6.74553 39.3336 7.4201 39.9563L6.64175 40.8384C6.09691 40.3195 5.50019 39.9823 4.72184 39.9823C3.42461 39.9823 2.46465 41.0719 2.46465 42.3951V42.4211C2.46465 43.7702 3.42461 44.8599 4.72184 44.8599C5.55207 44.8599 6.09691 44.5226 6.69364 43.9777L7.47198 44.7561C6.74553 45.5085 5.96719 45.9755 4.6959 45.9755C2.67221 46.0014 1.19336 44.4447 1.19336 42.4729Z" fill="white"/>
<path d="M19.3807 38.9707H20.4963L23.5059 45.872H22.2346L21.5341 44.2115H18.3169L17.6164 45.872H16.3711L19.3807 38.9707ZM21.119 43.1478L19.9255 40.3977L18.758 43.1478H21.119Z" fill="white"/>
<path d="M32.9244 39.0215H35.6226C37.2312 39.0215 38.2171 39.9296 38.2171 41.3046V41.3306C38.2171 42.8613 36.9718 43.6656 35.467 43.6656H34.0919V45.8709H32.8984V39.0215H32.9244ZM35.5448 42.5759C36.4529 42.5759 37.0237 42.057 37.0237 41.3565V41.3306C37.0237 40.5263 36.4529 40.1112 35.5448 40.1112H34.1438V42.5759H35.5448Z" fill="white"/>
<path d="M49.3981 40.1371H47.2188V39.0215H52.7969V40.1371H50.6175V45.8709H49.3981V40.1371Z" fill="white"/>
<path d="M61.6191 42.4729C61.6191 40.5012 63.072 38.8926 65.1476 38.8926C66.4189 38.8926 67.1713 39.3336 67.8459 39.9563L67.0675 40.8384C66.5227 40.3195 65.926 39.9823 65.1476 39.9823C63.8504 39.9823 62.8904 41.0719 62.8904 42.3951V42.4211C62.8904 43.7702 63.8504 44.8599 65.1476 44.8599C65.9778 44.8599 66.5227 44.5226 67.1194 43.9777L67.8978 44.7561C67.1713 45.5085 66.393 45.9755 65.1217 45.9755C63.1239 46.0014 61.6191 44.4447 61.6191 42.4729Z" fill="white"/>
<path d="M77.3926 39.0215H78.586V41.8754H81.8551V39.0215H83.0485V45.8709H81.8551V42.991H78.612V45.8709H77.4185V39.0215H77.3926Z" fill="white"/>
<path d="M95.5277 38.9707H96.6433L99.6529 45.872H98.3816L97.6811 44.2115H94.438L93.7375 45.872H92.4922L95.5277 38.9707ZM97.2401 43.1478L96.0466 40.3977L94.8791 43.1478H97.2401Z" fill="white"/>
</g>
<defs>
<clipPath id="clip0_182_4682">
<rect width="99.6537" height="46" fill="white"/>
</clipPath>
</defs>
</svg>
