<svg width="36" height="24" viewBox="0 0 36 24" fill="none" xmlns="http://www.w3.org/2000/svg">
<path fill-rule="evenodd" clip-rule="evenodd" d="M1.3251 0.147242C0.831931 0.336759 0.331034 0.844552 0.143862 1.34476C0.000413796 1.72828 0 1.75648 0 12C0 22.2435 0.000413796 22.2717 0.143862 22.6552C0.335862 23.1684 0.831586 23.6641 1.34476 23.8561L1.72931 24H17.6552H33.581L33.9656 23.8561C34.4788 23.6641 34.9745 23.1684 35.1665 22.6552C35.3099 22.2717 35.3103 22.2435 35.3103 12C35.3103 1.75648 35.3099 1.72828 35.1665 1.34476C34.9745 0.831586 34.4788 0.335862 33.9656 0.143862L33.581 0L17.6353 0.00358634C1.77841 0.00717255 1.68766 0.00800014 1.3251 0.147242ZM33.6605 1.64986L33.8621 1.85145V3.75331V5.65517H17.6552H1.44828V3.75331V1.85145L1.64986 1.64986L1.85145 1.44828H17.6552H33.4589L33.6605 1.64986ZM33.8621 16.0398V22.1486L33.6605 22.3501L33.4589 22.5517H17.6552H1.85145L1.64986 22.3501L1.44828 22.1486V16.0398V9.93103H17.6552H33.8621V16.0398ZM6.15952 14.1443C5.6469 14.2943 5.48021 14.9391 5.85676 15.3157L6.05834 15.5172H12.7094H19.3605L19.5355 15.3423C19.6317 15.246 19.7304 15.0877 19.7548 14.9905C19.8182 14.7381 19.6793 14.3772 19.462 14.2298C19.2852 14.1097 18.954 14.1029 12.8276 14.0917C9.00593 14.0848 6.28979 14.1062 6.15952 14.1443ZM6.15952 16.9726C5.64717 17.1208 5.48014 17.7666 5.85676 18.1432L6.05834 18.3448H9.88117H13.704L13.8837 18.1783C14.3309 17.7639 14.1177 17.0614 13.5077 16.9394C13.1677 16.8714 6.40359 16.902 6.15952 16.9726Z" fill="white"/>
</svg>
