<svg width="74" height="20" viewBox="0 0 74 20" fill="none" xmlns="http://www.w3.org/2000/svg">
<path d="M12.4855 0.954128C11.5609 0.318556 10.3545 0 8.86619 0H3.1042C2.64794 0 2.39587 0.228185 2.34798 0.684114L0.00734721 15.3769C-0.0169794 15.5212 0.0191251 15.6532 0.115331 15.7732C0.210986 15.8934 0.331298 15.9531 0.475386 15.9531H3.21229C3.69233 15.9531 3.95618 15.7255 4.00461 15.269L4.65274 11.3079C4.6764 11.1159 4.76083 10.9598 4.90492 10.8396C5.0489 10.7196 5.22898 10.6412 5.44506 10.6053C5.66113 10.5696 5.86488 10.5515 6.05729 10.5515C6.24916 10.5515 6.47712 10.5638 6.74163 10.5877C7.00548 10.6115 7.17368 10.6233 7.24578 10.6233C9.31034 10.6233 10.9309 10.0416 12.1075 8.87676C13.2835 7.71261 13.8722 6.09825 13.8722 4.03303C13.8722 2.61659 13.4095 1.59036 12.4855 0.953797V0.954128ZM9.51464 5.36592C9.39422 6.20634 9.08249 6.75826 8.57834 7.02244C8.07409 7.28695 7.35387 7.4186 6.41768 7.4186L5.2292 7.45448L5.84155 3.6011C5.88932 3.33725 6.0453 3.20516 6.30959 3.20516H6.99403C7.95389 3.20516 8.65055 3.34352 9.08271 3.61915C9.51464 3.89544 9.65873 4.47784 9.51464 5.36592Z" fill="#0041B8"/>
<path d="M73.2915 0H70.627C70.3621 0 70.2062 0.132091 70.1587 0.396381L67.8178 15.3776L67.7817 15.4495C67.7817 15.5702 67.8297 15.6837 67.9261 15.7918C68.0215 15.8996 68.1421 15.9537 68.286 15.9537H70.6632C71.1185 15.9537 71.3707 15.7261 71.4195 15.2696L73.7601 0.540468V0.504694C73.76 0.168415 73.6035 0.000441737 73.2915 0.000441737V0Z" fill="#009CDE"/>
<path d="M41.0961 5.79858C41.0961 5.67881 41.0479 5.56456 40.9524 5.45679C40.8561 5.34881 40.748 5.29443 40.6283 5.29443H37.8554C37.5907 5.29443 37.3747 5.41508 37.2069 5.65449L33.3897 11.2726L31.8052 5.87079C31.6845 5.48696 31.4208 5.29443 31.0129 5.29443H28.3116C28.1913 5.29443 28.0833 5.34859 27.9878 5.45679C27.8915 5.56456 27.8438 5.67904 27.8438 5.79858C27.8438 5.8469 28.0779 6.5549 28.5459 7.92335C29.014 9.29224 29.5181 10.7688 30.0584 12.3534C30.5986 13.9377 30.8805 14.7785 30.9046 14.8737C28.9358 17.563 27.9518 19.0035 27.9518 19.1952C27.9518 19.5076 28.1076 19.6635 28.42 19.6635H31.1929C31.4569 19.6635 31.6728 19.5437 31.8413 19.3035L41.0245 6.05054C41.0722 6.00299 41.0961 5.91933 41.0961 5.79847V5.79858Z" fill="#0041B8"/>
<path d="M66.9195 5.29431H64.1825C63.846 5.29431 63.6427 5.69058 63.5706 6.48301C62.9456 5.52293 61.806 5.04224 60.149 5.04224C58.4206 5.04224 56.9499 5.69058 55.7377 6.98705C54.5252 8.28351 53.9192 9.8085 53.9192 11.5609C53.9192 12.9777 54.3333 14.1059 55.1614 14.9459C55.9897 15.7868 57.0999 16.2064 58.4929 16.2064C59.189 16.2064 59.8972 16.0621 60.6174 15.7742C61.3376 15.4862 61.9013 15.1022 62.3102 14.6219C62.3102 14.646 62.2857 14.7536 62.2382 14.9456C62.1897 15.138 62.166 15.2825 62.166 15.3778C62.166 15.7624 62.3217 15.9539 62.6343 15.9539H65.1193C65.5749 15.9539 65.8393 15.7263 65.9111 15.2698L67.3878 5.87044C67.4115 5.72624 67.3756 5.59448 67.2797 5.47428C67.1832 5.35452 67.0634 5.29431 66.9195 5.29431ZM62.22 12.3891C61.6077 12.9893 60.8694 13.2893 60.0052 13.2893C59.3086 13.2893 58.7449 13.0975 58.3126 12.7132C57.8802 12.3299 57.6641 11.8016 57.6641 11.1286C57.6641 10.241 57.9643 9.49005 58.5647 8.87792C59.1641 8.26568 59.9091 7.95967 60.7974 7.95967C61.469 7.95967 62.0273 8.1577 62.4719 8.55364C62.9156 8.94991 63.1384 9.4961 63.1384 10.1925C63.1382 11.0568 62.8321 11.7892 62.22 12.3891Z" fill="#009CDE"/>
<path d="M26.0097 5.29431H23.2727C22.9361 5.29431 22.7325 5.69058 22.6604 6.48301C22.0121 5.52293 20.8716 5.04224 19.2391 5.04224C17.5105 5.04224 16.0398 5.69058 14.8276 6.98705C13.615 8.28351 13.009 9.8085 13.009 11.5609C13.009 12.9777 13.4232 14.1059 14.2516 14.9459C15.0799 15.7868 16.19 16.2064 17.5826 16.2064C18.2545 16.2064 18.9512 16.0621 19.6713 15.7742C20.3915 15.4862 20.9677 15.1022 21.3999 14.6219C21.3036 14.9097 21.2558 15.1619 21.2558 15.3778C21.2558 15.7624 21.4118 15.9539 21.724 15.9539H24.2088C24.6646 15.9539 24.929 15.7263 25.0011 15.2698L26.4775 5.87044C26.5012 5.72624 26.4653 5.59448 26.3695 5.47428C26.2734 5.35452 26.1536 5.29431 26.0097 5.29431ZM21.3101 12.4069C20.6977 12.9958 19.9471 13.2893 19.0594 13.2893C18.3627 13.2893 17.8045 13.0975 17.3847 12.7132C16.9643 12.3299 16.7544 11.8016 16.7544 11.1286C16.7544 10.241 17.0544 9.49005 17.6548 8.87792C18.2546 8.26568 18.999 7.95956 19.8876 7.95956C20.5595 7.95956 21.1177 8.1577 21.5623 8.55364C22.0061 8.94991 22.2284 9.4961 22.2284 10.1925C22.2283 11.0809 21.9223 11.8194 21.3101 12.4069Z" fill="#0041B8"/>
<path d="M53.396 0.954128C52.4716 0.318556 51.2655 0 49.7769 0H44.0508C43.5705 0 43.3063 0.228185 43.2586 0.684114L40.9177 15.3769C40.8934 15.5212 40.9295 15.6532 41.0258 15.7732C41.1211 15.8934 41.2417 15.9531 41.3858 15.9531H44.3387C44.6267 15.9531 44.8187 15.7973 44.915 15.4851L45.5632 11.3079C45.5871 11.1159 45.6711 10.9598 45.8154 10.8396C45.9595 10.7196 46.1394 10.6412 46.3557 10.6053C46.5715 10.5696 46.7753 10.5515 46.9678 10.5515C47.1598 10.5515 47.3876 10.5638 47.6519 10.5877C47.9159 10.6115 48.0845 10.6233 48.156 10.6233C50.221 10.6233 51.8412 10.0416 53.0178 8.87676C54.1943 7.71261 54.7824 6.09825 54.7824 4.03303C54.7825 2.61659 54.3201 1.59025 53.396 0.953797V0.954128ZM49.7049 6.87824C49.1767 7.2383 48.3842 7.41827 47.3282 7.41827L46.1756 7.45437L46.7878 3.60088C46.8354 3.33714 46.9915 3.20483 47.2558 3.20483H47.9039C48.4321 3.20483 48.8522 3.22893 49.1648 3.27682C49.4763 3.32503 49.7769 3.47484 50.065 3.7268C50.3532 3.97898 50.4971 4.34531 50.4971 4.82524C50.4971 5.83396 50.2327 6.51786 49.7049 6.87824Z" fill="#009CDE"/>
</svg>
