<svg width="28" height="28" viewBox="0 0 28 28" fill="none" xmlns="http://www.w3.org/2000/svg">
<path d="M28 14.0059C27.997 21.7383 21.7257 28.0037 13.9941 28C6.26246 27.997 -0.00296097 21.7264 1.04981e-06 13.9941C0.00296307 6.26468 6.26912 0.000740571 13.9985 6.56021e-08C21.7309 -0.00074044 27.9993 6.26764 28 14V14.0059Z" fill="#F7931A"/>
<path d="M16.5513 11.2849C16.5513 13.074 13.7426 12.8652 12.8488 12.8652V9.7032C13.7426 9.70172 16.5476 9.41737 16.5476 11.2834L16.5513 11.2849ZM17.2874 16.2034C17.2874 18.1694 13.9218 17.9458 12.8481 17.9465V14.4602C13.9218 14.4595 17.2881 14.1507 17.2881 16.2019L17.2874 16.2034ZM19.503 10.5755C19.323 8.69982 17.7036 8.07113 15.6598 7.89192V5.29053H14.0766V7.8238C13.6604 7.8238 13.2346 7.83194 12.8118 7.84083V5.29127H11.2293V7.89192C10.8865 7.89859 10.5495 7.90525 10.2215 7.90525V7.89711H8.03699V9.59064C8.03699 9.59064 9.20625 9.56843 9.18699 9.59064C9.62908 9.53363 10.0356 9.84316 10.0978 10.2845V13.2465C10.1534 13.2465 10.2096 13.2502 10.2652 13.2576H10.0978V17.4096C10.0793 17.7184 9.81494 17.9532 9.50689 17.9347H9.50541C9.5254 17.9524 8.35466 17.9347 8.35466 17.9347L8.03995 19.8259H10.1008C10.4844 19.8259 10.8613 19.8326 11.2315 19.8355V22.4666H12.8132V19.8629C13.2472 19.8718 13.6678 19.8755 14.078 19.8755V22.4673H15.659V19.8407C18.3248 19.6882 20.185 19.0173 20.416 16.5173C20.6026 14.5039 19.6555 13.6057 18.1449 13.2428C19.1512 12.7659 19.7088 11.67 19.503 10.5755Z" fill="white"/>
</svg>
