<svg width="34" height="23" viewBox="0 0 34 23" fill="none" xmlns="http://www.w3.org/2000/svg">
<path d="M0 5.14595C0 2.30392 2.30392 0 5.14595 0H27.9166C30.7586 0 33.0625 2.30392 33.0625 5.14595V17.8541C33.0625 20.6961 30.7586 23 27.9166 23H5.14595C2.30392 23 0 20.6961 0 17.8541V5.14595Z" fill="#002433"/>
<path fill-rule="evenodd" clip-rule="evenodd" d="M9.1255 7.99545C8.84752 8.33268 8.40274 8.59867 7.95796 8.56067C7.90236 8.10469 8.12012 7.62021 8.37494 7.32097C8.65293 6.97424 9.1394 6.72725 9.53321 6.70825C9.57954 7.18323 9.39885 7.64871 9.1255 7.99545ZM9.52856 8.65092C9.13672 8.6278 8.77918 8.77173 8.49039 8.88799C8.30454 8.9628 8.14717 9.02615 8.02744 9.02615C7.89308 9.02615 7.7292 8.95941 7.54521 8.88448C7.30412 8.78629 7.02849 8.67403 6.73944 8.67942C6.07691 8.68892 5.46071 9.07365 5.12249 9.68637C4.42753 10.9118 4.9418 12.7262 5.6136 13.7237C5.94255 14.2177 6.33636 14.7591 6.85527 14.7401C7.08355 14.7313 7.24777 14.6599 7.41772 14.5859C7.61338 14.5008 7.81663 14.4124 8.134 14.4124C8.44036 14.4124 8.63473 14.4985 8.82131 14.5812C8.99872 14.6598 9.16908 14.7353 9.422 14.7306C9.95944 14.7211 10.2977 14.2367 10.6266 13.7427C10.9816 13.2125 11.1376 12.6951 11.1613 12.6166L11.1613 12.6166L11.164 12.6075C11.1635 12.6069 11.1591 12.6049 11.1513 12.6012C11.0327 12.5455 10.1257 12.1198 10.117 10.9783C10.1082 10.0202 10.8364 9.53473 10.951 9.45831C10.958 9.45366 10.9627 9.45052 10.9648 9.44888C10.5015 8.74592 9.77875 8.66992 9.52856 8.65092ZM13.2491 14.6784V7.27345H15.9594C17.3586 7.27345 18.3362 8.2614 18.3362 9.70534C18.3362 11.1493 17.3401 12.1467 15.9224 12.1467H14.3703V14.6784H13.2491ZM14.3701 8.24245H15.6628C16.6357 8.24245 17.1917 8.77442 17.1917 9.71013C17.1917 10.6458 16.6357 11.1826 15.6581 11.1826H14.3701V8.24245ZM22.0379 13.7902C21.7414 14.3697 21.0881 14.7354 20.3839 14.7354C19.3414 14.7354 18.614 14.0989 18.614 13.1395C18.614 12.1895 19.3183 11.6433 20.6202 11.5626L22.0194 11.4771V11.0686C22.0194 10.4654 21.6348 10.1376 20.9491 10.1376C20.3839 10.1376 19.9715 10.4369 19.8881 10.8928H18.8781C18.9106 9.93338 19.7908 9.23516 20.9815 9.23516C22.2649 9.23516 23.0989 9.92388 23.0989 10.9926V14.6784H22.0611V13.7902H22.0379ZM20.685 13.8567C20.0874 13.8567 19.7075 13.5622 19.7075 13.111C19.7075 12.6455 20.0735 12.3747 20.7731 12.332L22.0194 12.2513V12.6692C22.0194 13.3627 21.4449 13.8567 20.685 13.8567ZM26.5413 14.9681C26.0919 16.2648 25.5777 16.6923 24.4843 16.6923C24.4009 16.6923 24.1229 16.6828 24.058 16.6638V15.7756C24.1275 15.7851 24.2989 15.7946 24.387 15.7946C24.8827 15.7946 25.1607 15.5809 25.3321 15.0251L25.434 14.6974L23.5345 9.30641H24.7066L26.0271 13.681H26.0502L27.3707 9.30641H28.5104L26.5413 14.9681Z" fill="white"/>
<path d="M5.14595 0.857658H27.9166V-0.857658H5.14595V0.857658ZM32.2048 5.14595V17.8541H33.9202V5.14595H32.2048ZM27.9166 22.1423H5.14595V23.8577H27.9166V22.1423ZM0.857658 17.8541V5.14595H-0.857658V17.8541H0.857658ZM5.14595 22.1423C2.77759 22.1423 0.857658 20.2224 0.857658 17.8541H-0.857658C-0.857658 21.1698 1.83025 23.8577 5.14595 23.8577V22.1423ZM32.2048 17.8541C32.2048 20.2224 30.2849 22.1423 27.9166 22.1423V23.8577C31.2323 23.8577 33.9202 21.1698 33.9202 17.8541H32.2048ZM27.9166 0.857658C30.2849 0.857658 32.2048 2.77759 32.2048 5.14595H33.9202C33.9202 1.83025 31.2323 -0.857658 27.9166 -0.857658V0.857658ZM5.14595 -0.857658C1.83025 -0.857658 -0.857658 1.83025 -0.857658 5.14595H0.857658C0.857658 2.77759 2.77759 0.857658 5.14595 0.857658V-0.857658Z" fill="#3E4653"/>
</svg>
