<svg width="34" height="23" viewBox="0 0 34 23" fill="none" xmlns="http://www.w3.org/2000/svg">
<path d="M0 6C0 2.68629 2.68629 0 6 0H27.0625C30.3762 0 33.0625 2.68629 33.0625 6V17C33.0625 20.3137 30.3762 23 27.0625 23H6C2.68629 23 0 20.3137 0 17V6Z" fill="#002433"/>
<path d="M5.14595 0.857658H27.9166V-0.857658H5.14595V0.857658ZM32.2048 5.14595V17.8541H33.9202V5.14595H32.2048ZM27.9166 22.1423H5.14595V23.8577H27.9166V22.1423ZM0.857658 17.8541V5.14595H-0.857658V17.8541H0.857658ZM5.14595 22.1423C2.77759 22.1423 0.857658 20.2224 0.857658 17.8541H-0.857658C-0.857658 21.1698 1.83025 23.8577 5.14595 23.8577V22.1423ZM32.2048 17.8541C32.2048 20.2224 30.2849 22.1423 27.9166 22.1423V23.8577C31.2323 23.8577 33.9202 21.1698 33.9202 17.8541H32.2048ZM27.9166 0.857658C30.2849 0.857658 32.2048 2.77759 32.2048 5.14595H33.9202C33.9202 1.83025 31.2323 -0.857658 27.9166 -0.857658V0.857658ZM5.14595 -0.857658C1.83025 -0.857658 -0.857658 1.83025 -0.857658 5.14595H0.857658C0.857658 2.77759 2.77759 0.857658 5.14595 0.857658V-0.857658Z" fill="#3E4653"/>
</svg>
