<svg width="128" height="128" viewBox="0 0 128 128" fill="none" xmlns="http://www.w3.org/2000/svg">
<path d="M5.97336 0.986664H0.986694V5.97333H5.97336V0.986664Z" fill="#2E3643"/>
<path d="M10.96 0.986664H5.97336V5.97333H10.96V0.986664Z" fill="#2E3643"/>
<path d="M15.9467 0.986664H10.96V5.97333H15.9467V0.986664Z" fill="#2E3643"/>
<path d="M21.3867 0.986664H15.9467V5.97333H21.3867V0.986664Z" fill="#2E3643"/>
<path d="M26.3734 0.986664H21.3867V5.97333H26.3734V0.986664Z" fill="#2E3643"/>
<path d="M31.36 0.986664H26.3734V5.97333H31.36V0.986664Z" fill="#2E3643"/>
<path d="M36.3467 0.986664H31.36V5.97333H36.3467V0.986664Z" fill="#2E3643"/>
<path d="M46.32 0.986664H41.3334V5.97333H46.32V0.986664Z" fill="#2E3643"/>
<path d="M56.7467 0.986664H51.76V5.97333H56.7467V0.986664Z" fill="#2E3643"/>
<path d="M61.7334 0.986664H56.7467V5.97333H61.7334V0.986664Z" fill="#2E3643"/>
<path d="M66.72 0.986664H61.7334V5.97333H66.72V0.986664Z" fill="#2E3643"/>
<path d="M71.7067 0.986664H66.72V5.97333H71.7067V0.986664Z" fill="#2E3643"/>
<path d="M76.6934 0.986664H71.7067V5.97333H76.6934V0.986664Z" fill="#2E3643"/>
<path d="M82.1334 0.986664H76.6934V5.97333H82.1334V0.986664Z" fill="#2E3643"/>
<path d="M87.12 0.986664H82.1334V5.97333H87.12V0.986664Z" fill="#2E3643"/>
<path d="M97.0934 0.986664H92.1067V5.97333H97.0934V0.986664Z" fill="#2E3643"/>
<path d="M102.08 0.986664H97.0934V5.97333H102.08V0.986664Z" fill="#2E3643"/>
<path d="M107.067 0.986664H102.08V5.97333H107.067V0.986664Z" fill="#2E3643"/>
<path d="M112.507 0.986664H107.067V5.97333H112.507V0.986664Z" fill="#2E3643"/>
<path d="M117.493 0.986664H112.507V5.97333H117.493V0.986664Z" fill="#2E3643"/>
<path d="M122.48 0.986664H117.493V5.97333H122.48V0.986664Z" fill="#2E3643"/>
<path d="M127.467 0.986664H122.48V5.97333H127.467V0.986664Z" fill="#2E3643"/>
<path d="M5.97336 5.97333H0.986694V10.96H5.97336V5.97333Z" fill="#2E3643"/>
<path d="M36.3467 5.97333H31.36V10.96H36.3467V5.97333Z" fill="#2E3643"/>
<path d="M51.76 5.97333H46.32V10.96H51.76V5.97333Z" fill="#2E3643"/>
<path d="M61.7334 5.97333H56.7467V10.96H61.7334V5.97333Z" fill="#2E3643"/>
<path d="M71.7067 5.97333H66.72V10.96H71.7067V5.97333Z" fill="#2E3643"/>
<path d="M76.6934 5.97333H71.7067V10.96H76.6934V5.97333Z" fill="#2E3643"/>
<path d="M97.0934 5.97333H92.1067V10.96H97.0934V5.97333Z" fill="#2E3643"/>
<path d="M127.467 5.97333H122.48V10.96H127.467V5.97333Z" fill="#2E3643"/>
<path d="M5.97336 10.96H0.986694V15.9467H5.97336V10.96Z" fill="#2E3643"/>
<path d="M15.9467 10.96H10.96V15.9467H15.9467V10.96Z" fill="#2E3643"/>
<path d="M21.3867 10.96H15.9467V15.9467H21.3867V10.96Z" fill="#2E3643"/>
<path d="M26.3734 10.96H21.3867V15.9467H26.3734V10.96Z" fill="#2E3643"/>
<path d="M36.3467 10.96H31.36V15.9467H36.3467V10.96Z" fill="#2E3643"/>
<path d="M56.7467 10.96H51.76V15.9467H56.7467V10.96Z" fill="#2E3643"/>
<path d="M61.7334 10.96H56.7467V15.9467H61.7334V10.96Z" fill="#2E3643"/>
<path d="M66.72 10.96H61.7334V15.9467H66.72V10.96Z" fill="#2E3643"/>
<path d="M87.12 10.96H82.1334V15.9467H87.12V10.96Z" fill="#2E3643"/>
<path d="M97.0934 10.96H92.1067V15.9467H97.0934V10.96Z" fill="#2E3643"/>
<path d="M107.067 10.96H102.08V15.9467H107.067V10.96Z" fill="#2E3643"/>
<path d="M112.507 10.96H107.067V15.9467H112.507V10.96Z" fill="#2E3643"/>
<path d="M117.493 10.96H112.507V15.9467H117.493V10.96Z" fill="#2E3643"/>
<path d="M127.467 10.96H122.48V15.9467H127.467V10.96Z" fill="#2E3643"/>
<path d="M5.97336 15.9467H0.986694V21.3867H5.97336V15.9467Z" fill="#2E3643"/>
<path d="M15.9467 15.9467H10.96V21.3867H15.9467V15.9467Z" fill="#2E3643"/>
<path d="M21.3867 15.9467H15.9467V21.3867H21.3867V15.9467Z" fill="#2E3643"/>
<path d="M26.3734 15.9467H21.3867V21.3867H26.3734V15.9467Z" fill="#2E3643"/>
<path d="M36.3467 15.9467H31.36V21.3867H36.3467V15.9467Z" fill="#2E3643"/>
<path d="M46.32 15.9467H41.3334V21.3867H46.32V15.9467Z" fill="#2E3643"/>
<path d="M51.76 15.9467H46.32V21.3867H51.76V15.9467Z" fill="#2E3643"/>
<path d="M56.7467 15.9467H51.76V21.3867H56.7467V15.9467Z" fill="#2E3643"/>
<path d="M61.7334 15.9467H56.7467V21.3867H61.7334V15.9467Z" fill="#2E3643"/>
<path d="M71.7067 15.9467H66.72V21.3867H71.7067V15.9467Z" fill="#2E3643"/>
<path d="M76.6934 15.9467H71.7067V21.3867H76.6934V15.9467Z" fill="#2E3643"/>
<path d="M87.12 15.9467H82.1334V21.3867H87.12V15.9467Z" fill="#2E3643"/>
<path d="M97.0934 15.9467H92.1067V21.3867H97.0934V15.9467Z" fill="#2E3643"/>
<path d="M107.067 15.9467H102.08V21.3867H107.067V15.9467Z" fill="#2E3643"/>
<path d="M112.507 15.9467H107.067V21.3867H112.507V15.9467Z" fill="#2E3643"/>
<path d="M117.493 15.9467H112.507V21.3867H117.493V15.9467Z" fill="#2E3643"/>
<path d="M127.467 15.9467H122.48V21.3867H127.467V15.9467Z" fill="#2E3643"/>
<path d="M5.97336 21.3867H0.986694V26.3733H5.97336V21.3867Z" fill="#2E3643"/>
<path d="M15.9467 21.3867H10.96V26.3733H15.9467V21.3867Z" fill="#2E3643"/>
<path d="M21.3867 21.3867H15.9467V26.3733H21.3867V21.3867Z" fill="#2E3643"/>
<path d="M26.3734 21.3867H21.3867V26.3733H26.3734V21.3867Z" fill="#2E3643"/>
<path d="M36.3467 21.3867H31.36V26.3733H36.3467V21.3867Z" fill="#2E3643"/>
<path d="M46.32 21.3867H41.3334V26.3733H46.32V21.3867Z" fill="#2E3643"/>
<path d="M51.76 21.3867H46.32V26.3733H51.76V21.3867Z" fill="#2E3643"/>
<path d="M76.6934 21.3867H71.7067V26.3733H76.6934V21.3867Z" fill="#2E3643"/>
<path d="M87.12 21.3867H82.1334V26.3733H87.12V21.3867Z" fill="#2E3643"/>
<path d="M97.0934 21.3867H92.1067V26.3733H97.0934V21.3867Z" fill="#2E3643"/>
<path d="M107.067 21.3867H102.08V26.3733H107.067V21.3867Z" fill="#2E3643"/>
<path d="M112.507 21.3867H107.067V26.3733H112.507V21.3867Z" fill="#2E3643"/>
<path d="M117.493 21.3867H112.507V26.3733H117.493V21.3867Z" fill="#2E3643"/>
<path d="M127.467 21.3867H122.48V26.3733H127.467V21.3867Z" fill="#2E3643"/>
<path d="M5.97336 26.3733H0.986694V31.36H5.97336V26.3733Z" fill="#2E3643"/>
<path d="M36.3467 26.3733H31.36V31.36H36.3467V26.3733Z" fill="#2E3643"/>
<path d="M46.32 26.3733H41.3334V31.36H46.32V26.3733Z" fill="#2E3643"/>
<path d="M51.76 26.3733H46.32V31.36H51.76V26.3733Z" fill="#2E3643"/>
<path d="M61.7334 26.3733H56.7467V31.36H61.7334V26.3733Z" fill="#2E3643"/>
<path d="M76.6934 26.3733H71.7067V31.36H76.6934V26.3733Z" fill="#2E3643"/>
<path d="M97.0934 26.3733H92.1067V31.36H97.0934V26.3733Z" fill="#2E3643"/>
<path d="M127.467 26.3733H122.48V31.36H127.467V26.3733Z" fill="#2E3643"/>
<path d="M5.97336 31.36H0.986694V36.3467H5.97336V31.36Z" fill="#2E3643"/>
<path d="M10.96 31.36H5.97336V36.3467H10.96V31.36Z" fill="#2E3643"/>
<path d="M15.9467 31.36H10.96V36.3467H15.9467V31.36Z" fill="#2E3643"/>
<path d="M21.3867 31.36H15.9467V36.3467H21.3867V31.36Z" fill="#2E3643"/>
<path d="M26.3734 31.36H21.3867V36.3467H26.3734V31.36Z" fill="#2E3643"/>
<path d="M31.36 31.36H26.3734V36.3467H31.36V31.36Z" fill="#2E3643"/>
<path d="M36.3467 31.36H31.36V36.3467H36.3467V31.36Z" fill="#2E3643"/>
<path d="M46.32 31.36H41.3334V36.3467H46.32V31.36Z" fill="#2E3643"/>
<path d="M56.7467 31.36H51.76V36.3467H56.7467V31.36Z" fill="#2E3643"/>
<path d="M66.72 31.36H61.7334V36.3467H66.72V31.36Z" fill="#2E3643"/>
<path d="M76.6934 31.36H71.7067V36.3467H76.6934V31.36Z" fill="#2E3643"/>
<path d="M87.12 31.36H82.1334V36.3467H87.12V31.36Z" fill="#2E3643"/>
<path d="M102.08 31.36H97.0934V36.3467H102.08V31.36Z" fill="#2E3643"/>
<path d="M107.067 31.36H102.08V36.3467H107.067V31.36Z" fill="#2E3643"/>
<path d="M112.507 31.36H107.067V36.3467H112.507V31.36Z" fill="#2E3643"/>
<path d="M117.493 31.36H112.507V36.3467H117.493V31.36Z" fill="#2E3643"/>
<path d="M122.48 31.36H117.493V36.3467H122.48V31.36Z" fill="#2E3643"/>
<path d="M127.467 31.36H122.48V36.3467H127.467V31.36Z" fill="#2E3643"/>
<path d="M46.32 36.3467H41.3334V41.3333H46.32V36.3467Z" fill="#2E3643"/>
<path d="M51.76 36.3467H46.32V41.3333H51.76V36.3467Z" fill="#2E3643"/>
<path d="M56.7467 36.3467H51.76V41.3333H56.7467V36.3467Z" fill="#2E3643"/>
<path d="M61.7334 36.3467H56.7467V41.3333H61.7334V36.3467Z" fill="#2E3643"/>
<path d="M66.72 36.3467H61.7334V41.3333H66.72V36.3467Z" fill="#2E3643"/>
<path d="M82.1334 36.3467H76.6934V41.3333H82.1334V36.3467Z" fill="#2E3643"/>
<path d="M87.12 36.3467H82.1334V41.3333H87.12V36.3467Z" fill="#2E3643"/>
<path d="M5.97336 41.3333H0.986694V46.32H5.97336V41.3333Z" fill="#2E3643"/>
<path d="M15.9467 41.3333H10.96V46.32H15.9467V41.3333Z" fill="#2E3643"/>
<path d="M26.3734 41.3333H21.3867V46.32H26.3734V41.3333Z" fill="#2E3643"/>
<path d="M36.3467 41.3333H31.36V46.32H36.3467V41.3333Z" fill="#2E3643"/>
<path d="M46.32 41.3333H41.3334V46.32H46.32V41.3333Z" fill="#2E3643"/>
<path d="M56.7467 41.3333H51.76V46.32H56.7467V41.3333Z" fill="#2E3643"/>
<path d="M61.7334 41.3333H56.7467V46.32H61.7334V41.3333Z" fill="#2E3643"/>
<path d="M71.7067 41.3333H66.72V46.32H71.7067V41.3333Z" fill="#2E3643"/>
<path d="M76.6934 41.3333H71.7067V46.32H76.6934V41.3333Z" fill="#2E3643"/>
<path d="M92.1067 41.3333H87.12V46.32H92.1067V41.3333Z" fill="#2E3643"/>
<path d="M97.0934 41.3333H92.1067V46.32H97.0934V41.3333Z" fill="#2E3643"/>
<path d="M102.08 41.3333H97.0934V46.32H102.08V41.3333Z" fill="#2E3643"/>
<path d="M107.067 41.3333H102.08V46.32H107.067V41.3333Z" fill="#2E3643"/>
<path d="M112.507 41.3333H107.067V46.32H112.507V41.3333Z" fill="#2E3643"/>
<path d="M127.467 41.3333H122.48V46.32H127.467V41.3333Z" fill="#2E3643"/>
<path d="M10.96 46.32H5.97336V51.76H10.96V46.32Z" fill="#2E3643"/>
<path d="M21.3867 46.32H15.9467V51.76H21.3867V46.32Z" fill="#2E3643"/>
<path d="M31.36 46.32H26.3734V51.76H31.36V46.32Z" fill="#2E3643"/>
<path d="M41.3334 46.32H36.3467V51.76H41.3334V46.32Z" fill="#2E3643"/>
<path d="M46.32 46.32H41.3334V51.76H46.32V46.32Z" fill="#2E3643"/>
<path d="M56.7467 46.32H51.76V51.76H56.7467V46.32Z" fill="#2E3643"/>
<path d="M71.7067 46.32H66.72V51.76H71.7067V46.32Z" fill="#2E3643"/>
<path d="M82.1334 46.32H76.6934V51.76H82.1334V46.32Z" fill="#2E3643"/>
<path d="M87.12 46.32H82.1334V51.76H87.12V46.32Z" fill="#2E3643"/>
<path d="M117.493 46.32H112.507V51.76H117.493V46.32Z" fill="#2E3643"/>
<path d="M122.48 46.32H117.493V51.76H122.48V46.32Z" fill="#2E3643"/>
<path d="M127.467 46.32H122.48V51.76H127.467V46.32Z" fill="#2E3643"/>
<path d="M15.9467 51.76H10.96V56.7467H15.9467V51.76Z" fill="#2E3643"/>
<path d="M31.36 51.76H26.3734V56.7467H31.36V51.76Z" fill="#2E3643"/>
<path d="M36.3467 51.76H31.36V56.7467H36.3467V51.76Z" fill="#2E3643"/>
<path d="M51.76 51.76H46.32V56.7467H51.76V51.76Z" fill="#2E3643"/>
<path d="M56.7467 51.76H51.76V56.7467H56.7467V51.76Z" fill="#2E3643"/>
<path d="M71.7067 51.76H66.72V56.7467H71.7067V51.76Z" fill="#2E3643"/>
<path d="M76.6934 51.76H71.7067V56.7467H76.6934V51.76Z" fill="#2E3643"/>
<path d="M82.1334 51.76H76.6934V56.7467H82.1334V51.76Z" fill="#2E3643"/>
<path d="M87.12 51.76H82.1334V56.7467H87.12V51.76Z" fill="#2E3643"/>
<path d="M97.0934 51.76H92.1067V56.7467H97.0934V51.76Z" fill="#2E3643"/>
<path d="M117.493 51.76H112.507V56.7467H117.493V51.76Z" fill="#2E3643"/>
<path d="M122.48 51.76H117.493V56.7467H122.48V51.76Z" fill="#2E3643"/>
<path d="M127.467 51.76H122.48V56.7467H127.467V51.76Z" fill="#2E3643"/>
<path d="M5.97336 56.7467H0.986694V61.7333H5.97336V56.7467Z" fill="#2E3643"/>
<path d="M10.96 56.7467H5.97336V61.7333H10.96V56.7467Z" fill="#2E3643"/>
<path d="M26.3734 56.7467H21.3867V61.7333H26.3734V56.7467Z" fill="#2E3643"/>
<path d="M31.36 56.7467H26.3734V61.7333H31.36V56.7467Z" fill="#2E3643"/>
<path d="M51.76 56.7467H46.32V61.7333H51.76V56.7467Z" fill="#2E3643"/>
<path d="M61.7334 56.7467H56.7467V61.7333H61.7334V56.7467Z" fill="#2E3643"/>
<path d="M87.12 56.7467H82.1334V61.7333H87.12V56.7467Z" fill="#2E3643"/>
<path d="M92.1067 56.7467H87.12V61.7333H92.1067V56.7467Z" fill="#2E3643"/>
<path d="M102.08 56.7467H97.0934V61.7333H102.08V56.7467Z" fill="#2E3643"/>
<path d="M117.493 56.7467H112.507V61.7333H117.493V56.7467Z" fill="#2E3643"/>
<path d="M122.48 56.7467H117.493V61.7333H122.48V56.7467Z" fill="#2E3643"/>
<path d="M127.467 56.7467H122.48V61.7333H127.467V56.7467Z" fill="#2E3643"/>
<path d="M10.96 61.7333H5.97336V66.72H10.96V61.7333Z" fill="#2E3643"/>
<path d="M21.3867 61.7333H15.9467V66.72H21.3867V61.7333Z" fill="#2E3643"/>
<path d="M36.3467 61.7333H31.36V66.72H36.3467V61.7333Z" fill="#2E3643"/>
<path d="M41.3334 61.7333H36.3467V66.72H41.3334V61.7333Z" fill="#2E3643"/>
<path d="M51.76 61.7333H46.32V66.72H51.76V61.7333Z" fill="#2E3643"/>
<path d="M61.7334 61.7333H56.7467V66.72H61.7334V61.7333Z" fill="#2E3643"/>
<path d="M71.7067 61.7333H66.72V66.72H71.7067V61.7333Z" fill="#2E3643"/>
<path d="M82.1334 61.7333H76.6934V66.72H82.1334V61.7333Z" fill="#2E3643"/>
<path d="M87.12 61.7333H82.1334V66.72H87.12V61.7333Z" fill="#2E3643"/>
<path d="M97.0934 61.7333H92.1067V66.72H97.0934V61.7333Z" fill="#2E3643"/>
<path d="M112.507 61.7333H107.067V66.72H112.507V61.7333Z" fill="#2E3643"/>
<path d="M122.48 61.7333H117.493V66.72H122.48V61.7333Z" fill="#2E3643"/>
<path d="M127.467 61.7333H122.48V66.72H127.467V61.7333Z" fill="#2E3643"/>
<path d="M5.97336 66.72H0.986694V71.7067H5.97336V66.72Z" fill="#2E3643"/>
<path d="M10.96 66.72H5.97336V71.7067H10.96V66.72Z" fill="#2E3643"/>
<path d="M15.9467 66.72H10.96V71.7067H15.9467V66.72Z" fill="#2E3643"/>
<path d="M26.3734 66.72H21.3867V71.7067H26.3734V66.72Z" fill="#2E3643"/>
<path d="M31.36 66.72H26.3734V71.7067H31.36V66.72Z" fill="#2E3643"/>
<path d="M46.32 66.72H41.3334V71.7067H46.32V66.72Z" fill="#2E3643"/>
<path d="M66.72 66.72H61.7334V71.7067H66.72V66.72Z" fill="#2E3643"/>
<path d="M82.1334 66.72H76.6934V71.7067H82.1334V66.72Z" fill="#2E3643"/>
<path d="M102.08 66.72H97.0934V71.7067H102.08V66.72Z" fill="#2E3643"/>
<path d="M107.067 66.72H102.08V71.7067H107.067V66.72Z" fill="#2E3643"/>
<path d="M112.507 66.72H107.067V71.7067H112.507V66.72Z" fill="#2E3643"/>
<path d="M122.48 66.72H117.493V71.7067H122.48V66.72Z" fill="#2E3643"/>
<path d="M127.467 66.72H122.48V71.7067H127.467V66.72Z" fill="#2E3643"/>
<path d="M5.97336 71.7067H0.986694V76.6933H5.97336V71.7067Z" fill="#2E3643"/>
<path d="M10.96 71.7067H5.97336V76.6933H10.96V71.7067Z" fill="#2E3643"/>
<path d="M21.3867 71.7067H15.9467V76.6933H21.3867V71.7067Z" fill="#2E3643"/>
<path d="M31.36 71.7067H26.3734V76.6933H31.36V71.7067Z" fill="#2E3643"/>
<path d="M36.3467 71.7067H31.36V76.6933H36.3467V71.7067Z" fill="#2E3643"/>
<path d="M41.3334 71.7067H36.3467V76.6933H41.3334V71.7067Z" fill="#2E3643"/>
<path d="M46.32 71.7067H41.3334V76.6933H46.32V71.7067Z" fill="#2E3643"/>
<path d="M51.76 71.7067H46.32V76.6933H51.76V71.7067Z" fill="#2E3643"/>
<path d="M56.7467 71.7067H51.76V76.6933H56.7467V71.7067Z" fill="#2E3643"/>
<path d="M61.7334 71.7067H56.7467V76.6933H61.7334V71.7067Z" fill="#2E3643"/>
<path d="M66.72 71.7067H61.7334V76.6933H66.72V71.7067Z" fill="#2E3643"/>
<path d="M76.6934 71.7067H71.7067V76.6933H76.6934V71.7067Z" fill="#2E3643"/>
<path d="M82.1334 71.7067H76.6934V76.6933H82.1334V71.7067Z" fill="#2E3643"/>
<path d="M97.0934 71.7067H92.1067V76.6933H97.0934V71.7067Z" fill="#2E3643"/>
<path d="M10.96 76.6933H5.97336V82.1333H10.96V76.6933Z" fill="#2E3643"/>
<path d="M21.3867 76.6933H15.9467V82.1333H21.3867V76.6933Z" fill="#2E3643"/>
<path d="M26.3734 76.6933H21.3867V82.1333H26.3734V76.6933Z" fill="#2E3643"/>
<path d="M41.3334 76.6933H36.3467V82.1333H41.3334V76.6933Z" fill="#2E3643"/>
<path d="M51.76 76.6933H46.32V82.1333H51.76V76.6933Z" fill="#2E3643"/>
<path d="M56.7467 76.6933H51.76V82.1333H56.7467V76.6933Z" fill="#2E3643"/>
<path d="M66.72 76.6933H61.7334V82.1333H66.72V76.6933Z" fill="#2E3643"/>
<path d="M71.7067 76.6933H66.72V82.1333H71.7067V76.6933Z" fill="#2E3643"/>
<path d="M76.6934 76.6933H71.7067V82.1333H76.6934V76.6933Z" fill="#2E3643"/>
<path d="M87.12 76.6933H82.1334V82.1333H87.12V76.6933Z" fill="#2E3643"/>
<path d="M102.08 76.6933H97.0934V82.1333H102.08V76.6933Z" fill="#2E3643"/>
<path d="M107.067 76.6933H102.08V82.1333H107.067V76.6933Z" fill="#2E3643"/>
<path d="M21.3867 82.1333H15.9467V87.12H21.3867V82.1333Z" fill="#2E3643"/>
<path d="M36.3467 82.1333H31.36V87.12H36.3467V82.1333Z" fill="#2E3643"/>
<path d="M41.3334 82.1333H36.3467V87.12H41.3334V82.1333Z" fill="#2E3643"/>
<path d="M46.32 82.1333H41.3334V87.12H46.32V82.1333Z" fill="#2E3643"/>
<path d="M51.76 82.1333H46.32V87.12H51.76V82.1333Z" fill="#2E3643"/>
<path d="M71.7067 82.1333H66.72V87.12H71.7067V82.1333Z" fill="#2E3643"/>
<path d="M87.12 82.1333H82.1334V87.12H87.12V82.1333Z" fill="#2E3643"/>
<path d="M92.1067 82.1333H87.12V87.12H92.1067V82.1333Z" fill="#2E3643"/>
<path d="M97.0934 82.1333H92.1067V87.12H97.0934V82.1333Z" fill="#2E3643"/>
<path d="M107.067 82.1333H102.08V87.12H107.067V82.1333Z" fill="#2E3643"/>
<path d="M117.493 82.1333H112.507V87.12H117.493V82.1333Z" fill="#2E3643"/>
<path d="M127.467 82.1333H122.48V87.12H127.467V82.1333Z" fill="#2E3643"/>
<path d="M46.32 87.12H41.3334V92.1067H46.32V87.12Z" fill="#2E3643"/>
<path d="M56.7467 87.12H51.76V92.1067H56.7467V87.12Z" fill="#2E3643"/>
<path d="M66.72 87.12H61.7334V92.1067H66.72V87.12Z" fill="#2E3643"/>
<path d="M71.7067 87.12H66.72V92.1067H71.7067V87.12Z" fill="#2E3643"/>
<path d="M87.12 87.12H82.1334V92.1067H87.12V87.12Z" fill="#2E3643"/>
<path d="M107.067 87.12H102.08V92.1067H107.067V87.12Z" fill="#2E3643"/>
<path d="M117.493 87.12H112.507V92.1067H117.493V87.12Z" fill="#2E3643"/>
<path d="M127.467 87.12H122.48V92.1067H127.467V87.12Z" fill="#2E3643"/>
<path d="M5.97336 92.1067H0.986694V97.0933H5.97336V92.1067Z" fill="#2E3643"/>
<path d="M10.96 92.1067H5.97336V97.0933H10.96V92.1067Z" fill="#2E3643"/>
<path d="M15.9467 92.1067H10.96V97.0933H15.9467V92.1067Z" fill="#2E3643"/>
<path d="M21.3867 92.1067H15.9467V97.0933H21.3867V92.1067Z" fill="#2E3643"/>
<path d="M26.3734 92.1067H21.3867V97.0933H26.3734V92.1067Z" fill="#2E3643"/>
<path d="M31.36 92.1067H26.3734V97.0933H31.36V92.1067Z" fill="#2E3643"/>
<path d="M36.3467 92.1067H31.36V97.0933H36.3467V92.1067Z" fill="#2E3643"/>
<path d="M61.7334 92.1067H56.7467V97.0933H61.7334V92.1067Z" fill="#2E3643"/>
<path d="M66.72 92.1067H61.7334V97.0933H66.72V92.1067Z" fill="#2E3643"/>
<path d="M82.1334 92.1067H76.6934V97.0933H82.1334V92.1067Z" fill="#2E3643"/>
<path d="M87.12 92.1067H82.1334V97.0933H87.12V92.1067Z" fill="#2E3643"/>
<path d="M97.0934 92.1067H92.1067V97.0933H97.0934V92.1067Z" fill="#2E3643"/>
<path d="M107.067 92.1067H102.08V97.0933H107.067V92.1067Z" fill="#2E3643"/>
<path d="M112.507 92.1067H107.067V97.0933H112.507V92.1067Z" fill="#2E3643"/>
<path d="M5.97336 97.0933H0.986694V102.08H5.97336V97.0933Z" fill="#2E3643"/>
<path d="M36.3467 97.0933H31.36V102.08H36.3467V97.0933Z" fill="#2E3643"/>
<path d="M51.76 97.0933H46.32V102.08H51.76V97.0933Z" fill="#2E3643"/>
<path d="M56.7467 97.0933H51.76V102.08H56.7467V97.0933Z" fill="#2E3643"/>
<path d="M82.1334 97.0933H76.6934V102.08H82.1334V97.0933Z" fill="#2E3643"/>
<path d="M87.12 97.0933H82.1334V102.08H87.12V97.0933Z" fill="#2E3643"/>
<path d="M107.067 97.0933H102.08V102.08H107.067V97.0933Z" fill="#2E3643"/>
<path d="M122.48 97.0933H117.493V102.08H122.48V97.0933Z" fill="#2E3643"/>
<path d="M5.97336 102.08H0.986694V107.067H5.97336V102.08Z" fill="#2E3643"/>
<path d="M15.9467 102.08H10.96V107.067H15.9467V102.08Z" fill="#2E3643"/>
<path d="M21.3867 102.08H15.9467V107.067H21.3867V102.08Z" fill="#2E3643"/>
<path d="M26.3734 102.08H21.3867V107.067H26.3734V102.08Z" fill="#2E3643"/>
<path d="M36.3467 102.08H31.36V107.067H36.3467V102.08Z" fill="#2E3643"/>
<path d="M46.32 102.08H41.3334V107.067H46.32V102.08Z" fill="#2E3643"/>
<path d="M51.76 102.08H46.32V107.067H51.76V102.08Z" fill="#2E3643"/>
<path d="M71.7067 102.08H66.72V107.067H71.7067V102.08Z" fill="#2E3643"/>
<path d="M76.6934 102.08H71.7067V107.067H76.6934V102.08Z" fill="#2E3643"/>
<path d="M87.12 102.08H82.1334V107.067H87.12V102.08Z" fill="#2E3643"/>
<path d="M92.1067 102.08H87.12V107.067H92.1067V102.08Z" fill="#2E3643"/>
<path d="M97.0934 102.08H92.1067V107.067H97.0934V102.08Z" fill="#2E3643"/>
<path d="M102.08 102.08H97.0934V107.067H102.08V102.08Z" fill="#2E3643"/>
<path d="M107.067 102.08H102.08V107.067H107.067V102.08Z" fill="#2E3643"/>
<path d="M117.493 102.08H112.507V107.067H117.493V102.08Z" fill="#2E3643"/>
<path d="M122.48 102.08H117.493V107.067H122.48V102.08Z" fill="#2E3643"/>
<path d="M5.97336 107.067H0.986694V112.507H5.97336V107.067Z" fill="#2E3643"/>
<path d="M15.9467 107.067H10.96V112.507H15.9467V107.067Z" fill="#2E3643"/>
<path d="M21.3867 107.067H15.9467V112.507H21.3867V107.067Z" fill="#2E3643"/>
<path d="M26.3734 107.067H21.3867V112.507H26.3734V107.067Z" fill="#2E3643"/>
<path d="M36.3467 107.067H31.36V112.507H36.3467V107.067Z" fill="#2E3643"/>
<path d="M56.7467 107.067H51.76V112.507H56.7467V107.067Z" fill="#2E3643"/>
<path d="M61.7334 107.067H56.7467V112.507H61.7334V107.067Z" fill="#2E3643"/>
<path d="M76.6934 107.067H71.7067V112.507H76.6934V107.067Z" fill="#2E3643"/>
<path d="M82.1334 107.067H76.6934V112.507H82.1334V107.067Z" fill="#2E3643"/>
<path d="M117.493 107.067H112.507V112.507H117.493V107.067Z" fill="#2E3643"/>
<path d="M127.467 107.067H122.48V112.507H127.467V107.067Z" fill="#2E3643"/>
<path d="M5.97336 112.507H0.986694V117.493H5.97336V112.507Z" fill="#2E3643"/>
<path d="M15.9467 112.507H10.96V117.493H15.9467V112.507Z" fill="#2E3643"/>
<path d="M21.3867 112.507H15.9467V117.493H21.3867V112.507Z" fill="#2E3643"/>
<path d="M26.3734 112.507H21.3867V117.493H26.3734V112.507Z" fill="#2E3643"/>
<path d="M36.3467 112.507H31.36V117.493H36.3467V112.507Z" fill="#2E3643"/>
<path d="M46.32 112.507H41.3334V117.493H46.32V112.507Z" fill="#2E3643"/>
<path d="M61.7334 112.507H56.7467V117.493H61.7334V112.507Z" fill="#2E3643"/>
<path d="M76.6934 112.507H71.7067V117.493H76.6934V112.507Z" fill="#2E3643"/>
<path d="M82.1334 112.507H76.6934V117.493H82.1334V112.507Z" fill="#2E3643"/>
<path d="M87.12 112.507H82.1334V117.493H87.12V112.507Z" fill="#2E3643"/>
<path d="M92.1067 112.507H87.12V117.493H92.1067V112.507Z" fill="#2E3643"/>
<path d="M117.493 112.507H112.507V117.493H117.493V112.507Z" fill="#2E3643"/>
<path d="M122.48 112.507H117.493V117.493H122.48V112.507Z" fill="#2E3643"/>
<path d="M5.97336 117.493H0.986694V122.48H5.97336V117.493Z" fill="#2E3643"/>
<path d="M36.3467 117.493H31.36V122.48H36.3467V117.493Z" fill="#2E3643"/>
<path d="M46.32 117.493H41.3334V122.48H46.32V117.493Z" fill="#2E3643"/>
<path d="M51.76 117.493H46.32V122.48H51.76V117.493Z" fill="#2E3643"/>
<path d="M61.7334 117.493H56.7467V122.48H61.7334V117.493Z" fill="#2E3643"/>
<path d="M71.7067 117.493H66.72V122.48H71.7067V117.493Z" fill="#2E3643"/>
<path d="M76.6934 117.493H71.7067V122.48H76.6934V117.493Z" fill="#2E3643"/>
<path d="M87.12 117.493H82.1334V122.48H87.12V117.493Z" fill="#2E3643"/>
<path d="M92.1067 117.493H87.12V122.48H92.1067V117.493Z" fill="#2E3643"/>
<path d="M112.507 117.493H107.067V122.48H112.507V117.493Z" fill="#2E3643"/>
<path d="M117.493 117.493H112.507V122.48H117.493V117.493Z" fill="#2E3643"/>
<path d="M122.48 117.493H117.493V122.48H122.48V117.493Z" fill="#2E3643"/>
<path d="M5.97336 122.48H0.986694V127.467H5.97336V122.48Z" fill="#2E3643"/>
<path d="M10.96 122.48H5.97336V127.467H10.96V122.48Z" fill="#2E3643"/>
<path d="M15.9467 122.48H10.96V127.467H15.9467V122.48Z" fill="#2E3643"/>
<path d="M21.3867 122.48H15.9467V127.467H21.3867V122.48Z" fill="#2E3643"/>
<path d="M26.3734 122.48H21.3867V127.467H26.3734V122.48Z" fill="#2E3643"/>
<path d="M31.36 122.48H26.3734V127.467H31.36V122.48Z" fill="#2E3643"/>
<path d="M36.3467 122.48H31.36V127.467H36.3467V122.48Z" fill="#2E3643"/>
<path d="M56.7467 122.48H51.76V127.467H56.7467V122.48Z" fill="#2E3643"/>
<path d="M61.7334 122.48H56.7467V127.467H61.7334V122.48Z" fill="#2E3643"/>
<path d="M66.72 122.48H61.7334V127.467H66.72V122.48Z" fill="#2E3643"/>
<path d="M76.6934 122.48H71.7067V127.467H76.6934V122.48Z" fill="#2E3643"/>
<path d="M82.1334 122.48H76.6934V127.467H82.1334V122.48Z" fill="#2E3643"/>
<path d="M97.0934 122.48H92.1067V127.467H97.0934V122.48Z" fill="#2E3643"/>
<path d="M102.08 122.48H97.0934V127.467H102.08V122.48Z" fill="#2E3643"/>
<path d="M107.067 122.48H102.08V127.467H107.067V122.48Z" fill="#2E3643"/>
<path d="M112.507 122.48H107.067V127.467H112.507V122.48Z" fill="#2E3643"/>
<path d="M117.493 122.48H112.507V127.467H117.493V122.48Z" fill="#2E3643"/>
<path d="M122.48 122.48H117.493V127.467H122.48V122.48Z" fill="#2E3643"/>
<path d="M127.467 122.48H122.48V127.467H127.467V122.48Z" fill="#2E3643"/>
</svg>
