<svg width="115" height="106" viewBox="0 0 115 106" fill="none" xmlns="http://www.w3.org/2000/svg" xmlns:xlink="http://www.w3.org/1999/xlink">
<circle opacity="0.1" cx="50" cy="50" r="50" fill="#030917"/>
<g filter="url(#filter0_d_182_4440)">
<path d="M18.9327 46.0434C16.5444 43.5486 16.3465 39.6799 18.4676 36.9543L25.6564 27.7171C26.9753 26.0224 29.0026 25.0312 31.15 25.0312H68.1571C70.3214 25.0312 72.3626 26.0379 73.68 27.755L80.7539 36.9747C82.8409 39.6949 82.6365 43.5297 80.2721 46.0126L54.6964 72.8706C51.958 75.7463 47.3726 75.7523 44.6267 72.8838L18.9327 46.0434Z" fill="white"/>
</g>
<mask id="mask0_182_4440" style="mask-type:alpha" maskUnits="userSpaceOnUse" x="17" y="25" width="66" height="51">
<path d="M18.9327 46.0434C16.5444 43.5486 16.3465 39.6799 18.4676 36.9543L25.6564 27.7171C26.9753 26.0224 29.0026 25.0312 31.15 25.0312H68.1571C70.3214 25.0312 72.3626 26.0379 73.68 27.755L80.7539 36.9747C82.8409 39.6949 82.6365 43.5297 80.2721 46.0126L54.6964 72.8706C51.958 75.7463 47.3726 75.7523 44.6267 72.8838L18.9327 46.0434Z" fill="white"/>
</mask>
<g mask="url(#mask0_182_4440)">
<path d="M14.7734 41.6997L27.7455 25.0312H71.5891L84.378 41.6997L49.6673 78.1505L14.7734 41.6997Z" fill="url(#paint0_linear_182_4440)"/>
<path d="M14.7754 41.7012L30.8394 47.0058L49.6693 78.152L14.7754 41.7012Z" fill="black" fill-opacity="0.1"/>
<path d="M84.2927 41.7012L67.9613 47.0058L49.6699 78.152L84.2927 41.7012Z" fill="black" fill-opacity="0.1"/>
<g style="mix-blend-mode:overlay">
<path d="M49.4027 28.6778L27.6055 25.0254L30.8402 47.0058H49.3111H49.4943H67.9615L71.1963 25.0254L49.4027 28.6778Z" fill="white"/>
</g>
<g style="mix-blend-mode:soft-light">
<path d="M27.6055 25.0254L49.6701 32.3522L71.5919 25.0327L27.6055 25.0254Z" fill="white"/>
</g>
<g style="mix-blend-mode:overlay">
<path d="M49.4023 28.6777L30.8398 47.0057H67.9611L49.4023 28.6777Z" fill="white"/>
</g>
<g style="mix-blend-mode:soft-light">
<path d="M49.6697 32.3516L30.8398 47.0052H67.9611L49.6697 32.3516Z" fill="white"/>
</g>
<g style="mix-blend-mode:soft-light">
<path d="M30.8394 47.0058L14.7754 41.7012L27.6046 25.0254H30.8394V47.0058Z" fill="white"/>
</g>
<g style="mix-blend-mode:soft-light">
<path d="M67.961 47.0058L84.3877 41.7012L71.5585 25.0254H68.3237L67.961 47.0058Z" fill="white"/>
</g>
<g style="mix-blend-mode:soft-light" opacity="0.5">
<path d="M30.8398 47.0059L49.5781 78.1046L67.9611 47.0059H30.8398Z" fill="white"/>
</g>
<g style="mix-blend-mode:soft-light" opacity="0.3" filter="url(#filter1_i_182_4440)">
<path d="M30.8398 47.0059L49.5781 78.1046L67.9611 47.0059H30.8398Z" fill="black"/>
</g>
<g style="mix-blend-mode:soft-light">
<rect x="14.7734" y="85.9336" width="69.6119" height="69.6119" transform="rotate(-90 14.7734 85.9336)" fill="url(#pattern0)" fill-opacity="0.6"/>
</g>
</g>
<defs>
<filter id="filter0_d_182_4440" x="9" y="15.0312" width="105.192" height="90" filterUnits="userSpaceOnUse" color-interpolation-filters="sRGB">
<feFlood flood-opacity="0" result="BackgroundImageFix"/>
<feColorMatrix in="SourceAlpha" type="matrix" values="0 0 0 0 0 0 0 0 0 0 0 0 0 0 0 0 0 0 127 0" result="hardAlpha"/>
<feOffset dx="12" dy="10"/>
<feGaussianBlur stdDeviation="10"/>
<feComposite in2="hardAlpha" operator="out"/>
<feColorMatrix type="matrix" values="0 0 0 0 0 0 0 0 0 0 0 0 0 0 0 0 0 0 0.2 0"/>
<feBlend mode="normal" in2="BackgroundImageFix" result="effect1_dropShadow_182_4440"/>
<feBlend mode="normal" in="SourceGraphic" in2="effect1_dropShadow_182_4440" result="shape"/>
</filter>
<filter id="filter1_i_182_4440" x="30.8398" y="43.0059" width="37.1212" height="35.0987" filterUnits="userSpaceOnUse" color-interpolation-filters="sRGB">
<feFlood flood-opacity="0" result="BackgroundImageFix"/>
<feBlend mode="normal" in="SourceGraphic" in2="BackgroundImageFix" result="shape"/>
<feColorMatrix in="SourceAlpha" type="matrix" values="0 0 0 0 0 0 0 0 0 0 0 0 0 0 0 0 0 0 127 0" result="hardAlpha"/>
<feOffset dy="-4"/>
<feGaussianBlur stdDeviation="15"/>
<feComposite in2="hardAlpha" operator="arithmetic" k2="-1" k3="1"/>
<feColorMatrix type="matrix" values="0 0 0 0 1 0 0 0 0 1 0 0 0 0 1 0 0 0 1 0"/>
<feBlend mode="normal" in2="shape" result="effect1_innerShadow_182_4440"/>
</filter>
<pattern id="pattern0" patternContentUnits="objectBoundingBox" width="12.8714" height="7.72281">
<use xlink:href="#image0_182_4440" transform="scale(0.0100557)"/>
</pattern>
<linearGradient id="paint0_linear_182_4440" x1="49.5757" y1="25.0312" x2="49.5757" y2="78.1505" gradientUnits="userSpaceOnUse">
<stop stop-color="#FF5C00"/>
<stop offset="0.434333" stop-color="#FF375F"/>
<stop offset="1" stop-color="#FF5C00"/>
</linearGradient>
</svg>
